<svg id="visual" viewBox="0 0 900 600" width="900" height="600" xmlns="http://www.w3.org/2000/svg" xmlns:xlink="http://www.w3.org/1999/xlink" version="1.1"><g stroke-width="1" stroke-linejoin="bevel"><path d="M465 303.1L476 278.9L459 271Z" fill="#08385d" stroke="#08385d"></path><path d="M459 271L425 286L465 303.1Z" fill="#124979" stroke="#124979"></path><path d="M425 286L421 314.9L465 303.1Z" fill="#205997" stroke="#205997"></path><path d="M459 271L415 259.1L425 286Z" fill="#08385d" stroke="#08385d"></path><path d="M425 286L414 321.9L421 314.9Z" fill="#06304f" stroke="#06304f"></path><path d="M421 314.9L423 329.9L465 303.1Z" fill="#124979" stroke="#124979"></path><path d="M390 257.1L414 321.9L425 286Z" fill="#08385d" stroke="#08385d"></path><path d="M421 314.9L414 321.9L423 329.9Z" fill="#051928" stroke="#051928"></path><path d="M480 347L520 306.9L465 303.1Z" fill="#124979" stroke="#124979"></path><path d="M465 303.1L520 306.9L476 278.9Z" fill="#08385d" stroke="#08385d"></path><path d="M520 306.9L519 263.3L476 278.9Z" fill="#08385d" stroke="#08385d"></path><path d="M476 278.9L476 212.1L459 271Z" fill="#00101c" stroke="#00101c"></path><path d="M459 271L414 220.3L415 259.1Z" fill="#052034" stroke="#052034"></path><path d="M423 329.9L480 347L465 303.1Z" fill="#052034" stroke="#052034"></path><path d="M519 263.3L476 212.1L476 278.9Z" fill="#052034" stroke="#052034"></path><path d="M414 220.3L390 257.1L415 259.1Z" fill="#051928" stroke="#051928"></path><path d="M415 259.1L390 257.1L425 286Z" fill="#205997" stroke="#205997"></path><path d="M476 212.1L414 220.3L459 271Z" fill="#051928" stroke="#051928"></path><path d="M551 312.7L547 309.1L520 306.9Z" fill="#00101c" stroke="#00101c"></path><path d="M520 306.9L547 309.1L519 263.3Z" fill="#00101c" stroke="#00101c"></path><path d="M440 195.6L416 209.3L414 220.3Z" fill="#0c406b" stroke="#0c406b"></path><path d="M414 220.3L391 217.4L390 257.1Z" fill="#0c406b" stroke="#0c406b"></path><path d="M541 374.6L551 312.7L520 306.9Z" fill="#2962a6" stroke="#2962a6"></path><path d="M547 309.1L600 227.4L519 263.3Z" fill="#205997" stroke="#205997"></path><path d="M476 212.1L440 195.6L414 220.3Z" fill="#0c406b" stroke="#0c406b"></path><path d="M414 321.9L396 360L423 329.9Z" fill="#2962a6" stroke="#2962a6"></path><path d="M423 329.9L418 377.7L480 347Z" fill="#08385d" stroke="#08385d"></path><path d="M345 342.7L396 360L414 321.9Z" fill="#195188" stroke="#195188"></path><path d="M417 188.6L391 217.4L416 209.3Z" fill="#195188" stroke="#195188"></path><path d="M416 209.3L391 217.4L414 220.3Z" fill="#195188" stroke="#195188"></path><path d="M541 374.6L558 314L551 312.7Z" fill="#0c406b" stroke="#0c406b"></path><path d="M551 312.7L558 314L547 309.1Z" fill="#205997" stroke="#205997"></path><path d="M396 360L418 377.7L423 329.9Z" fill="#052842" stroke="#052842"></path><path d="M480 347L538 375.7L520 306.9Z" fill="#205997" stroke="#205997"></path><path d="M391 217.4L354 279.1L390 257.1Z" fill="#2962a6" stroke="#2962a6"></path><path d="M390 257.1L354 279.1L414 321.9Z" fill="#052842" stroke="#052842"></path><path d="M440 195.6L417 188.6L416 209.3Z" fill="#052842" stroke="#052842"></path><path d="M519 263.3L507 188.4L476 212.1Z" fill="#051928" stroke="#051928"></path><path d="M476 212.1L464 162.3L440 195.6Z" fill="#00101c" stroke="#00101c"></path><path d="M440 195.6L464 162.3L417 188.6Z" fill="#06304f" stroke="#06304f"></path><path d="M516 188.1L507 188.4L519 263.3Z" fill="#205997" stroke="#205997"></path><path d="M594 202.4L516 188.1L519 263.3Z" fill="#052842" stroke="#052842"></path><path d="M507 188.4L464 162.3L476 212.1Z" fill="#08385d" stroke="#08385d"></path><path d="M354 279.1L346 299L414 321.9Z" fill="#06304f" stroke="#06304f"></path><path d="M532 395.7L538 375.7L480 347Z" fill="#2962a6" stroke="#2962a6"></path><path d="M538 375.7L541 374.6L520 306.9Z" fill="#00101c" stroke="#00101c"></path><path d="M507 154.6L464 162.3L507 188.4Z" fill="#08385d" stroke="#08385d"></path><path d="M517 413.6L532 395.7L480 347Z" fill="#0c406b" stroke="#0c406b"></path><path d="M538 375.7L532 395.7L541 374.6Z" fill="#195188" stroke="#195188"></path><path d="M346 299L345 342.7L414 321.9Z" fill="#205997" stroke="#205997"></path><path d="M396 360L363 381.7L418 377.7Z" fill="#051928" stroke="#051928"></path><path d="M345 342.7L363 381.7L396 360Z" fill="#2962a6" stroke="#2962a6"></path><path d="M418 377.7L517 413.6L480 347Z" fill="#00101c" stroke="#00101c"></path><path d="M404 419.4L517 413.6L418 377.7Z" fill="#052034" stroke="#052034"></path><path d="M604 184.3L507 154.6L516 188.1Z" fill="#052842" stroke="#052842"></path><path d="M516 188.1L507 154.6L507 188.4Z" fill="#08385d" stroke="#08385d"></path><path d="M344 192.1L321 274.3L354 279.1Z" fill="#00101c" stroke="#00101c"></path><path d="M354 279.1L321 274.3L346 299Z" fill="#06304f" stroke="#06304f"></path><path d="M346 299L302 347.9L345 342.7Z" fill="#00101c" stroke="#00101c"></path><path d="M344 192.1L354 279.1L391 217.4Z" fill="#051928" stroke="#051928"></path><path d="M363 381.7L404 419.4L418 377.7Z" fill="#052034" stroke="#052034"></path><path d="M517 413.6L541 409.4L532 395.7Z" fill="#205997" stroke="#205997"></path><path d="M532 395.7L541 409.4L541 374.6Z" fill="#052034" stroke="#052034"></path><path d="M625 367L613 303.9L558 314Z" fill="#06304f" stroke="#06304f"></path><path d="M603 229.3L600 227.4L558 314Z" fill="#205997" stroke="#205997"></path><path d="M558 314L600 227.4L547 309.1Z" fill="#08385d" stroke="#08385d"></path><path d="M354 142.4L344 192.1L417 188.6Z" fill="#205997" stroke="#205997"></path><path d="M417 188.6L344 192.1L391 217.4Z" fill="#00101c" stroke="#00101c"></path><path d="M625 367L558 314L541 374.6Z" fill="#06304f" stroke="#06304f"></path><path d="M613 303.9L603 229.3L558 314Z" fill="#052034" stroke="#052034"></path><path d="M600 227.4L594 202.4L519 263.3Z" fill="#052034" stroke="#052034"></path><path d="M603 229.3L594 202.4L600 227.4Z" fill="#052842" stroke="#052842"></path><path d="M507 477.3L523 435.7L517 413.6Z" fill="#052842" stroke="#052842"></path><path d="M517 413.6L523 435.7L541 409.4Z" fill="#06304f" stroke="#06304f"></path><path d="M496 119.7L461 122.7L464 162.3Z" fill="#052842" stroke="#052842"></path><path d="M464 162.3L407 116.4L417 188.6Z" fill="#124979" stroke="#124979"></path><path d="M496 119.7L464 162.3L507 154.6Z" fill="#205997" stroke="#205997"></path><path d="M555 426.6L571 411.6L541 409.4Z" fill="#2962a6" stroke="#2962a6"></path><path d="M541 409.4L571 411.6L541 374.6Z" fill="#052842" stroke="#052842"></path><path d="M523 435.7L555 426.6L541 409.4Z" fill="#205997" stroke="#205997"></path><path d="M624 229L601 193.3L594 202.4Z" fill="#00101c" stroke="#00101c"></path><path d="M594 202.4L604 184.3L516 188.1Z" fill="#00101c" stroke="#00101c"></path><path d="M624 229L594 202.4L603 229.3Z" fill="#052034" stroke="#052034"></path><path d="M516 88.6L496 119.7L507 154.6Z" fill="#052034" stroke="#052034"></path><path d="M289 331.7L302 347.9L346 299Z" fill="#06304f" stroke="#06304f"></path><path d="M345 342.7L302 347.9L363 381.7Z" fill="#052842" stroke="#052842"></path><path d="M384 454.6L388 453.3L404 419.4Z" fill="#08385d" stroke="#08385d"></path><path d="M637 282.9L624 229L603 229.3Z" fill="#052034" stroke="#052034"></path><path d="M647 365.9L637 282.9L613 303.9Z" fill="#052842" stroke="#052842"></path><path d="M613 303.9L637 282.9L603 229.3Z" fill="#052034" stroke="#052034"></path><path d="M630 168.4L604 184.3L601 193.3Z" fill="#051928" stroke="#051928"></path><path d="M601 193.3L604 184.3L594 202.4Z" fill="#205997" stroke="#205997"></path><path d="M250 310L289 331.7L247 286.3Z" fill="#051928" stroke="#051928"></path><path d="M321 274.3L289 331.7L346 299Z" fill="#08385d" stroke="#08385d"></path><path d="M362 62.9L407 116.4L412 12.9Z" fill="#0c406b" stroke="#0c406b"></path><path d="M461 122.7L407 116.4L464 162.3Z" fill="#195188" stroke="#195188"></path><path d="M407 116.4L354 142.4L417 188.6Z" fill="#124979" stroke="#124979"></path><path d="M344 192.1L275 233L321 274.3Z" fill="#051928" stroke="#051928"></path><path d="M647 365.9L625 367L642 415.7Z" fill="#195188" stroke="#195188"></path><path d="M571 411.6L625 367L541 374.6Z" fill="#195188" stroke="#195188"></path><path d="M384 454.6L404 419.4L363 381.7Z" fill="#0c406b" stroke="#0c406b"></path><path d="M404 419.4L507 477.3L517 413.6Z" fill="#00101c" stroke="#00101c"></path><path d="M374 466.4L384 454.6L328 469.6Z" fill="#195188" stroke="#195188"></path><path d="M437 502.6L507 477.3L404 419.4Z" fill="#052842" stroke="#052842"></path><path d="M384 454.6L363 381.7L328 469.6Z" fill="#08385d" stroke="#08385d"></path><path d="M355 122.7L329 152.4L354 142.4Z" fill="#195188" stroke="#195188"></path><path d="M354 142.4L329 152.4L344 192.1Z" fill="#052034" stroke="#052034"></path><path d="M674 286.1L652 270.3L637 282.9Z" fill="#08385d" stroke="#08385d"></path><path d="M637 282.9L652 270.3L624 229Z" fill="#195188" stroke="#195188"></path><path d="M624 229L630 168.4L601 193.3Z" fill="#00101c" stroke="#00101c"></path><path d="M652 270.3L648 231L624 229Z" fill="#06304f" stroke="#06304f"></path><path d="M274 179.6L275 233L344 192.1Z" fill="#00101c" stroke="#00101c"></path><path d="M437 502.6L404 419.4L388 453.3Z" fill="#2962a6" stroke="#2962a6"></path><path d="M523 435.7L547 480.3L555 426.6Z" fill="#052034" stroke="#052034"></path><path d="M642 415.7L625 367L571 411.6Z" fill="#052034" stroke="#052034"></path><path d="M407 116.4L355 122.7L354 142.4Z" fill="#205997" stroke="#205997"></path><path d="M328 469.6L363 381.7L288 454.3Z" fill="#205997" stroke="#205997"></path><path d="M384 454.6L374 466.4L388 453.3Z" fill="#195188" stroke="#195188"></path><path d="M630 479.3L571 411.6L555 426.6Z" fill="#051928" stroke="#051928"></path><path d="M625 367L647 365.9L613 303.9Z" fill="#0c406b" stroke="#0c406b"></path><path d="M612 92.7L516 88.6L507 154.6Z" fill="#06304f" stroke="#06304f"></path><path d="M496 119.7L516 88.6L461 122.7Z" fill="#052842" stroke="#052842"></path><path d="M362 62.9L326 98.6L355 122.7Z" fill="#124979" stroke="#124979"></path><path d="M612 92.7L507 154.6L604 184.3Z" fill="#052034" stroke="#052034"></path><path d="M648 231L630 168.4L624 229Z" fill="#00101c" stroke="#00101c"></path><path d="M507 477.3L547 480.3L523 435.7Z" fill="#052842" stroke="#052842"></path><path d="M647 365.9L674 286.1L637 282.9Z" fill="#195188" stroke="#195188"></path><path d="M652 270.3L694 278.1L648 231Z" fill="#2962a6" stroke="#2962a6"></path><path d="M671 183.6L652 166.6L630 168.4Z" fill="#051928" stroke="#051928"></path><path d="M247 286.3L289 331.7L321 274.3Z" fill="#205997" stroke="#205997"></path><path d="M289 331.7L239 348.9L302 347.9Z" fill="#124979" stroke="#124979"></path><path d="M275 233L247 286.3L321 274.3Z" fill="#052842" stroke="#052842"></path><path d="M374 466.4L398 492.4L388 453.3Z" fill="#124979" stroke="#124979"></path><path d="M507 477.3L534 495.3L547 480.3Z" fill="#052842" stroke="#052842"></path><path d="M329 152.4L274 179.6L344 192.1Z" fill="#205997" stroke="#205997"></path><path d="M275 233L202 275.1L247 286.3Z" fill="#0c406b" stroke="#0c406b"></path><path d="M270 171.4L274 179.6L329 152.4Z" fill="#124979" stroke="#124979"></path><path d="M398 492.4L437 502.6L388 453.3Z" fill="#052842" stroke="#052842"></path><path d="M538 539.1L534 495.3L507 477.3Z" fill="#00101c" stroke="#00101c"></path><path d="M630 479.3L642 415.7L571 411.6Z" fill="#2962a6" stroke="#2962a6"></path><path d="M630 479.3L555 426.6L547 480.3Z" fill="#06304f" stroke="#06304f"></path><path d="M705 350L694 278.1L674 286.1Z" fill="#0c406b" stroke="#0c406b"></path><path d="M283 117.7L270 171.4L329 152.4Z" fill="#195188" stroke="#195188"></path><path d="M202 182.3L202 275.1L275 233Z" fill="#052034" stroke="#052034"></path><path d="M671 183.6L630 168.4L648 231Z" fill="#00101c" stroke="#00101c"></path><path d="M552 55.6L532 58.7L516 88.6Z" fill="#0c406b" stroke="#0c406b"></path><path d="M288 454.3L363 381.7L302 347.9Z" fill="#06304f" stroke="#06304f"></path><path d="M374 466.4L377 502.6L398 492.4Z" fill="#0c406b" stroke="#0c406b"></path><path d="M576 522.1L557 495.1L538 539.1Z" fill="#195188" stroke="#195188"></path><path d="M534 495.3L557 495.1L547 480.3Z" fill="#00101c" stroke="#00101c"></path><path d="M209 357.9L239 348.9L250 310Z" fill="#052034" stroke="#052034"></path><path d="M250 310L239 348.9L289 331.7Z" fill="#06304f" stroke="#06304f"></path><path d="M328 469.6L377 502.6L374 466.4Z" fill="#052034" stroke="#052034"></path><path d="M398 492.4L391 531.3L437 502.6Z" fill="#052842" stroke="#052842"></path><path d="M709 274.1L694 278.1L705 350Z" fill="#2962a6" stroke="#2962a6"></path><path d="M674 286.1L694 278.1L652 270.3Z" fill="#052034" stroke="#052034"></path><path d="M362 62.9L355 122.7L407 116.4Z" fill="#00101c" stroke="#00101c"></path><path d="M355 122.7L326 98.6L329 152.4Z" fill="#2962a6" stroke="#2962a6"></path><path d="M718 193.3L671 183.6L648 231Z" fill="#2962a6" stroke="#2962a6"></path><path d="M239 348.9L251 397.4L302 347.9Z" fill="#124979" stroke="#124979"></path><path d="M612 92.7L604 184.3L630 168.4Z" fill="#205997" stroke="#205997"></path><path d="M412 12.9L407 116.4L461 122.7Z" fill="#195188" stroke="#195188"></path><path d="M651 138.7L630 168.4L652 166.6Z" fill="#205997" stroke="#205997"></path><path d="M675 136.6L651 138.7L652 166.6Z" fill="#124979" stroke="#124979"></path><path d="M251 397.4L288 454.3L302 347.9Z" fill="#00101c" stroke="#00101c"></path><path d="M344 565.1L391 531.3L377 502.6Z" fill="#124979" stroke="#124979"></path><path d="M412 12.9L461 122.7L516 88.6Z" fill="#205997" stroke="#205997"></path><path d="M641 106.6L612 92.7L630 168.4Z" fill="#0c406b" stroke="#0c406b"></path><path d="M283 112.9L283 117.7L326 98.6Z" fill="#0c406b" stroke="#0c406b"></path><path d="M326 98.6L283 117.7L329 152.4Z" fill="#124979" stroke="#124979"></path><path d="M705 350L674 286.1L647 365.9Z" fill="#051928" stroke="#051928"></path><path d="M694 278.1L723 245.4L648 231Z" fill="#052034" stroke="#052034"></path><path d="M612 92.7L552 55.6L516 88.6Z" fill="#195188" stroke="#195188"></path><path d="M505 0L412 12.9L516 88.6Z" fill="#205997" stroke="#205997"></path><path d="M321 36.7L283 112.9L326 98.6Z" fill="#2962a6" stroke="#2962a6"></path><path d="M185 162.6L202 182.3L188 141.3Z" fill="#052842" stroke="#052842"></path><path d="M704 367.7L705 350L647 365.9Z" fill="#051928" stroke="#051928"></path><path d="M251 397.4L270 453.3L288 454.3Z" fill="#052034" stroke="#052034"></path><path d="M297 498.6L307 505.4L328 469.6Z" fill="#0c406b" stroke="#0c406b"></path><path d="M307 505.4L377 502.6L328 469.6Z" fill="#08385d" stroke="#08385d"></path><path d="M377 502.6L391 531.3L398 492.4Z" fill="#08385d" stroke="#08385d"></path><path d="M538 539.1L557 495.1L534 495.3Z" fill="#0c406b" stroke="#0c406b"></path><path d="M651 138.7L641 106.6L630 168.4Z" fill="#052034" stroke="#052034"></path><path d="M612 92.7L606 59.7L552 55.6Z" fill="#124979" stroke="#124979"></path><path d="M675 136.6L641 106.6L651 138.7Z" fill="#195188" stroke="#195188"></path><path d="M675 136.6L652 166.6L671 183.6Z" fill="#2962a6" stroke="#2962a6"></path><path d="M711 419.4L704 367.7L642 415.7Z" fill="#00101c" stroke="#00101c"></path><path d="M642 415.7L704 367.7L647 365.9Z" fill="#06304f" stroke="#06304f"></path><path d="M618 517.4L630 479.3L557 495.1Z" fill="#052034" stroke="#052034"></path><path d="M557 495.1L630 479.3L547 480.3Z" fill="#052034" stroke="#052034"></path><path d="M704 367.7L712 355.7L705 350Z" fill="#205997" stroke="#205997"></path><path d="M705 350L754 299.1L709 274.1Z" fill="#124979" stroke="#124979"></path><path d="M737 385.7L712 355.7L704 367.7Z" fill="#08385d" stroke="#08385d"></path><path d="M202 182.3L275 233L274 179.6Z" fill="#195188" stroke="#195188"></path><path d="M247 286.3L202 275.1L250 310Z" fill="#195188" stroke="#195188"></path><path d="M239 348.9L209 357.9L251 397.4Z" fill="#052842" stroke="#052842"></path><path d="M220 456.7L239 468.4L270 453.3Z" fill="#205997" stroke="#205997"></path><path d="M202 182.3L274 179.6L270 171.4Z" fill="#051928" stroke="#051928"></path><path d="M691 130.7L675 136.6L671 183.6Z" fill="#124979" stroke="#124979"></path><path d="M538 539.1L507 477.3L514 562.1Z" fill="#08385d" stroke="#08385d"></path><path d="M172 310L209 357.9L250 310Z" fill="#08385d" stroke="#08385d"></path><path d="M514 562.1L507 477.3L437 502.6Z" fill="#0c406b" stroke="#0c406b"></path><path d="M754 299.1L723 245.4L709 274.1Z" fill="#2962a6" stroke="#2962a6"></path><path d="M709 274.1L723 245.4L694 278.1Z" fill="#08385d" stroke="#08385d"></path><path d="M297 498.6L328 469.6L288 454.3Z" fill="#052034" stroke="#052034"></path><path d="M239 468.4L297 498.6L270 453.3Z" fill="#124979" stroke="#124979"></path><path d="M270 453.3L297 498.6L288 454.3Z" fill="#06304f" stroke="#06304f"></path><path d="M655 82.9L612 92.7L641 106.6Z" fill="#00101c" stroke="#00101c"></path><path d="M655 82.9L606 59.7L612 92.7Z" fill="#205997" stroke="#205997"></path><path d="M723 245.4L718 193.3L648 231Z" fill="#205997" stroke="#205997"></path><path d="M196 408.7L212 402.9L178 398.6Z" fill="#052034" stroke="#052034"></path><path d="M209 357.9L212 402.9L251 397.4Z" fill="#08385d" stroke="#08385d"></path><path d="M718 193.3L691 130.7L671 183.6Z" fill="#195188" stroke="#195188"></path><path d="M675 136.6L655 82.9L641 106.6Z" fill="#195188" stroke="#195188"></path><path d="M618 517.4L633 505.4L630 479.3Z" fill="#06304f" stroke="#06304f"></path><path d="M712 478.6L711 419.4L642 415.7Z" fill="#051928" stroke="#051928"></path><path d="M618 517.4L557 495.1L576 522.1Z" fill="#052842" stroke="#052842"></path><path d="M596 536.4L618 517.4L576 522.1Z" fill="#06304f" stroke="#06304f"></path><path d="M505 0L516 88.6L532 58.7Z" fill="#00101c" stroke="#00101c"></path><path d="M362 62.9L321 36.7L326 98.6Z" fill="#08385d" stroke="#08385d"></path><path d="M505 0L532 58.7L529 0Z" fill="#124979" stroke="#124979"></path><path d="M412 12.9L369 23.7L362 62.9Z" fill="#2962a6" stroke="#2962a6"></path><path d="M480 593.1L514 562.1L437 502.6Z" fill="#0c406b" stroke="#0c406b"></path><path d="M538 539.1L596 536.4L576 522.1Z" fill="#205997" stroke="#205997"></path><path d="M270 171.4L283 117.7L188 141.3Z" fill="#052034" stroke="#052034"></path><path d="M202 182.3L270 171.4L188 141.3Z" fill="#051928" stroke="#051928"></path><path d="M691 130.7L655 82.9L675 136.6Z" fill="#00101c" stroke="#00101c"></path><path d="M712 478.6L642 415.7L630 479.3Z" fill="#124979" stroke="#124979"></path><path d="M760 320.9L754 299.1L705 350Z" fill="#2962a6" stroke="#2962a6"></path><path d="M715 533.1L712 478.6L633 505.4Z" fill="#2962a6" stroke="#2962a6"></path><path d="M529 600L596 536.4L538 539.1Z" fill="#2962a6" stroke="#2962a6"></path><path d="M369 23.7L321 36.7L362 62.9Z" fill="#051928" stroke="#051928"></path><path d="M220 456.7L270 453.3L251 397.4Z" fill="#00101c" stroke="#00101c"></path><path d="M312 565.3L344 565.1L307 505.4Z" fill="#00101c" stroke="#00101c"></path><path d="M202 182.3L174 272.9L202 275.1Z" fill="#205997" stroke="#205997"></path><path d="M202 275.1L172 310L250 310Z" fill="#195188" stroke="#195188"></path><path d="M529 0L552 55.6L560 -32.1Z" fill="#06304f" stroke="#06304f"></path><path d="M529 0L532 58.7L552 55.6Z" fill="#052034" stroke="#052034"></path><path d="M412 12.9L384 0L369 23.7Z" fill="#052034" stroke="#052034"></path><path d="M369 23.7L332 0L321 36.7Z" fill="#051928" stroke="#051928"></path><path d="M505 0L416 0L412 12.9Z" fill="#052842" stroke="#052842"></path><path d="M174 272.9L172 310L202 275.1Z" fill="#051928" stroke="#051928"></path><path d="M212 402.9L220 456.7L251 397.4Z" fill="#06304f" stroke="#06304f"></path><path d="M730 405.4L737 385.7L704 367.7Z" fill="#051928" stroke="#051928"></path><path d="M723 245.4L760 226.4L718 193.3Z" fill="#06304f" stroke="#06304f"></path><path d="M760 320.9L705 350L712 355.7Z" fill="#00101c" stroke="#00101c"></path><path d="M178 398.6L212 402.9L209 357.9Z" fill="#124979" stroke="#124979"></path><path d="M711 419.4L730 405.4L704 367.7Z" fill="#06304f" stroke="#06304f"></path><path d="M762 476.6L730 405.4L711 419.4Z" fill="#06304f" stroke="#06304f"></path><path d="M520 -20.1L529 0L530 -22.1Z" fill="#205997" stroke="#205997"></path><path d="M196 438.4L220 456.7L212 402.9Z" fill="#195188" stroke="#195188"></path><path d="M730 405.4L739 393.6L737 385.7Z" fill="#0c406b" stroke="#0c406b"></path><path d="M763 354.9L760 320.9L712 355.7Z" fill="#08385d" stroke="#08385d"></path><path d="M416 0L384 0L412 12.9Z" fill="#2962a6" stroke="#2962a6"></path><path d="M763 354.9L712 355.7L737 385.7Z" fill="#0c406b" stroke="#0c406b"></path><path d="M174 272.9L161 290.1L172 310Z" fill="#00101c" stroke="#00101c"></path><path d="M172 310L164 330.1L209 357.9Z" fill="#052034" stroke="#052034"></path><path d="M108 301.1L161 290.1L101 290.9Z" fill="#06304f" stroke="#06304f"></path><path d="M141 319L164 330.1L172 310Z" fill="#06304f" stroke="#06304f"></path><path d="M307 505.4L344 565.1L377 502.6Z" fill="#052842" stroke="#052842"></path><path d="M470 600L480 593.1L437 502.6Z" fill="#124979" stroke="#124979"></path><path d="M312 565.3L307 505.4L262 561.3Z" fill="#00101c" stroke="#00101c"></path><path d="M307 505.4L297 498.6L262 561.3Z" fill="#052842" stroke="#052842"></path><path d="M188 141.3L283 117.7L199 98.9Z" fill="#0c406b" stroke="#0c406b"></path><path d="M202 182.3L141 183.4L174 272.9Z" fill="#00101c" stroke="#00101c"></path><path d="M809 252L760 226.4L754 299.1Z" fill="#06304f" stroke="#06304f"></path><path d="M754 299.1L760 226.4L723 245.4Z" fill="#124979" stroke="#124979"></path><path d="M718 193.3L732 109.4L691 130.7Z" fill="#0c406b" stroke="#0c406b"></path><path d="M196 408.7L196 438.4L212 402.9Z" fill="#205997" stroke="#205997"></path><path d="M164 330.1L178 398.6L209 357.9Z" fill="#06304f" stroke="#06304f"></path><path d="M178 398.6L196 438.4L196 408.7Z" fill="#051928" stroke="#051928"></path><path d="M313 579.1L312 565.3L286 600.1Z" fill="#124979" stroke="#124979"></path><path d="M470 600L437 502.6L391 531.3Z" fill="#051928" stroke="#051928"></path><path d="M514 562.1L529 600L538 539.1Z" fill="#08385d" stroke="#08385d"></path><path d="M739 393.6L763 354.9L737 385.7Z" fill="#051928" stroke="#051928"></path><path d="M809 252L769 184.3L760 226.4Z" fill="#052842" stroke="#052842"></path><path d="M332 0L295 25.9L321 36.7Z" fill="#195188" stroke="#195188"></path><path d="M321 36.7L295 25.9L283 112.9Z" fill="#052034" stroke="#052034"></path><path d="M199 98.9L283 117.7L283 112.9Z" fill="#08385d" stroke="#08385d"></path><path d="M120 332L141 319L108 301.1Z" fill="#205997" stroke="#205997"></path><path d="M530 -22.1L529 0L560 -32.1Z" fill="#205997" stroke="#205997"></path><path d="M529 0L520 -20.1L505 0Z" fill="#052034" stroke="#052034"></path><path d="M505 0L520 -20.1L416 0Z" fill="#06304f" stroke="#06304f"></path><path d="M416 0L387 -32.1L384 0Z" fill="#205997" stroke="#205997"></path><path d="M391 600L470 600L391 531.3Z" fill="#08385d" stroke="#08385d"></path><path d="M480 593.1L496 600L514 562.1Z" fill="#052034" stroke="#052034"></path><path d="M470 600L496 600L480 593.1Z" fill="#0c406b" stroke="#0c406b"></path><path d="M730 405.4L800 397.7L739 393.6Z" fill="#052842" stroke="#052842"></path><path d="M739 393.6L800 397.7L763 354.9Z" fill="#2962a6" stroke="#2962a6"></path><path d="M633 505.4L712 478.6L630 479.3Z" fill="#052842" stroke="#052842"></path><path d="M715 533.1L633 505.4L618 517.4Z" fill="#08385d" stroke="#08385d"></path><path d="M715 533.1L618 517.4L703 600Z" fill="#052842" stroke="#052842"></path><path d="M330 -18.1L332 0L384 0Z" fill="#051928" stroke="#051928"></path><path d="M384 0L332 0L369 23.7Z" fill="#205997" stroke="#205997"></path><path d="M297 498.6L239 468.4L262 561.3Z" fill="#051928" stroke="#051928"></path><path d="M344 565.1L391 600L391 531.3Z" fill="#051928" stroke="#051928"></path><path d="M560 -32.1L552 55.6L606 59.7Z" fill="#205997" stroke="#205997"></path><path d="M520 -20.1L387 -32.1L416 0Z" fill="#195188" stroke="#195188"></path><path d="M496 600L518 600L514 562.1Z" fill="#051928" stroke="#051928"></path><path d="M518 600L529 600L514 562.1Z" fill="#195188" stroke="#195188"></path><path d="M344 600L391 600L344 565.1Z" fill="#2962a6" stroke="#2962a6"></path><path d="M161 290.1L141 319L172 310Z" fill="#00101c" stroke="#00101c"></path><path d="M164 330.1L120 332L178 398.6Z" fill="#052034" stroke="#052034"></path><path d="M151 443.4L172 457.6L196 438.4Z" fill="#08385d" stroke="#08385d"></path><path d="M141 183.4L202 182.3L185 162.6Z" fill="#051928" stroke="#051928"></path><path d="M769 184.3L732 109.4L718 193.3Z" fill="#06304f" stroke="#06304f"></path><path d="M691 130.7L732 109.4L655 82.9Z" fill="#052034" stroke="#052034"></path><path d="M637 0L560 -32.1L606 59.7Z" fill="#124979" stroke="#124979"></path><path d="M276 21.7L199 98.9L283 112.9Z" fill="#052034" stroke="#052034"></path><path d="M188 141.3L141 183.4L185 162.6Z" fill="#052034" stroke="#052034"></path><path d="M760 226.4L769 184.3L718 193.3Z" fill="#08385d" stroke="#08385d"></path><path d="M792 300.1L754 299.1L760 320.9Z" fill="#051928" stroke="#051928"></path><path d="M292 0L276 21.7L295 25.9Z" fill="#052034" stroke="#052034"></path><path d="M295 25.9L276 21.7L283 112.9Z" fill="#205997" stroke="#205997"></path><path d="M199 98.9L180 121.4L188 141.3Z" fill="#051928" stroke="#051928"></path><path d="M235 565.1L239 468.4L199 545.3Z" fill="#195188" stroke="#195188"></path><path d="M312 565.3L313 579.1L344 565.1Z" fill="#205997" stroke="#205997"></path><path d="M560 -32.1L387 -32.1L520 -20.1Z" fill="#195188" stroke="#195188"></path><path d="M332 0L292 0L295 25.9Z" fill="#2962a6" stroke="#2962a6"></path><path d="M828 330.9L792 300.1L763 354.9Z" fill="#06304f" stroke="#06304f"></path><path d="M763 354.9L792 300.1L760 320.9Z" fill="#06304f" stroke="#06304f"></path><path d="M387 -32.1L330 -18.1L384 0Z" fill="#00101c" stroke="#00101c"></path><path d="M330 -18.1L292 0L332 0Z" fill="#06304f" stroke="#06304f"></path><path d="M153 72.7L178 100.4L165 55.6Z" fill="#08385d" stroke="#08385d"></path><path d="M637 0L606 59.7L645 0Z" fill="#06304f" stroke="#06304f"></path><path d="M530 -22.1L560 -32.1L520 -20.1Z" fill="#00101c" stroke="#00101c"></path><path d="M313 579.1L344 600L344 565.1Z" fill="#195188" stroke="#195188"></path><path d="M645 0L606 59.7L655 82.9Z" fill="#124979" stroke="#124979"></path><path d="M151 443.4L196 438.4L178 398.6Z" fill="#052034" stroke="#052034"></path><path d="M196 438.4L172 457.6L220 456.7Z" fill="#052034" stroke="#052034"></path><path d="M180 121.4L141 183.4L188 141.3Z" fill="#051928" stroke="#051928"></path><path d="M235 565.1L262 561.3L239 468.4Z" fill="#08385d" stroke="#08385d"></path><path d="M313 579.1L286 600.1L344 600Z" fill="#124979" stroke="#124979"></path><path d="M199 98.9L178 100.4L180 121.4Z" fill="#052034" stroke="#052034"></path><path d="M180 121.4L147 101.9L141 183.4Z" fill="#052842" stroke="#052842"></path><path d="M165 55.6L199 98.9L179 12.7Z" fill="#052034" stroke="#052034"></path><path d="M655 0L645 0L655 82.9Z" fill="#051928" stroke="#051928"></path><path d="M637 0L645 0L560 -32.1Z" fill="#2962a6" stroke="#2962a6"></path><path d="M108 301.1L141 319L161 290.1Z" fill="#052034" stroke="#052034"></path><path d="M141 319L120 332L164 330.1Z" fill="#051928" stroke="#051928"></path><path d="M717 52.9L655 0L655 82.9Z" fill="#195188" stroke="#195188"></path><path d="M645 0L655 0L560 -32.1Z" fill="#124979" stroke="#124979"></path><path d="M732 109.4L717 52.9L655 82.9Z" fill="#2962a6" stroke="#2962a6"></path><path d="M754 93.9L717 52.9L732 109.4Z" fill="#0c406b" stroke="#0c406b"></path><path d="M113 415.7L151 443.4L178 398.6Z" fill="#052842" stroke="#052842"></path><path d="M199 545.3L239 468.4L169 526.1Z" fill="#124979" stroke="#124979"></path><path d="M792 300.1L809 252L754 299.1Z" fill="#124979" stroke="#124979"></path><path d="M797 136.6L754 93.9L732 109.4Z" fill="#08385d" stroke="#08385d"></path><path d="M330 -18.1L263 0L292 0Z" fill="#195188" stroke="#195188"></path><path d="M292 0L263 0L276 21.7Z" fill="#052842" stroke="#052842"></path><path d="M797 136.6L732 109.4L769 184.3Z" fill="#052034" stroke="#052034"></path><path d="M743 556.3L715 533.1L703 600Z" fill="#052034" stroke="#052034"></path><path d="M712 478.6L762 476.6L711 419.4Z" fill="#205997" stroke="#205997"></path><path d="M792 300.1L853 326L809 252Z" fill="#06304f" stroke="#06304f"></path><path d="M101 290.9L161 290.1L174 272.9Z" fill="#052034" stroke="#052034"></path><path d="M120 332L113 415.7L178 398.6Z" fill="#052034" stroke="#052034"></path><path d="M715 533.1L725 524.3L712 478.6Z" fill="#195188" stroke="#195188"></path><path d="M762 508.4L762 476.6L712 478.6Z" fill="#051928" stroke="#051928"></path><path d="M811 447.6L800 397.7L730 405.4Z" fill="#2962a6" stroke="#2962a6"></path><path d="M239 468.4L220 456.7L169 526.1Z" fill="#06304f" stroke="#06304f"></path><path d="M262 561.3L286 600.1L312 565.3Z" fill="#2962a6" stroke="#2962a6"></path><path d="M278 600L286 600.1L262 561.3Z" fill="#205997" stroke="#205997"></path><path d="M41 627.1L783 625.1L391 600Z" fill="#052842" stroke="#052842"></path><path d="M391 600L783 625.1L470 600Z" fill="#124979" stroke="#124979"></path><path d="M470 600L783 625.1L496 600Z" fill="#052034" stroke="#052034"></path><path d="M496 600L783 625.1L518 600Z" fill="#052034" stroke="#052034"></path><path d="M518 600L783 625.1L529 600Z" fill="#052034" stroke="#052034"></path><path d="M141 183.4L101 290.9L174 272.9Z" fill="#051928" stroke="#051928"></path><path d="M108 301.1L63 332.7L120 332Z" fill="#08385d" stroke="#08385d"></path><path d="M251 585.1L278 600L262 561.3Z" fill="#0c406b" stroke="#0c406b"></path><path d="M235 565.1L251 585.1L262 561.3Z" fill="#052842" stroke="#052842"></path><path d="M178 100.4L147 101.9L180 121.4Z" fill="#195188" stroke="#195188"></path><path d="M141 183.4L100 170.4L101 290.9Z" fill="#052034" stroke="#052034"></path><path d="M153 72.7L147 101.9L178 100.4Z" fill="#00101c" stroke="#00101c"></path><path d="M813 153.7L797 136.6L769 184.3Z" fill="#0c406b" stroke="#0c406b"></path><path d="M762 0L787 17.7L764 0Z" fill="#051928" stroke="#051928"></path><path d="M160 503.4L220 456.7L172 457.6Z" fill="#051928" stroke="#051928"></path><path d="M238 600L251 600L251 585.1Z" fill="#08385d" stroke="#08385d"></path><path d="M800 397.7L828 330.9L763 354.9Z" fill="#2962a6" stroke="#2962a6"></path><path d="M815 156.3L813 153.7L769 184.3Z" fill="#051928" stroke="#051928"></path><path d="M129 460.6L172 457.6L151 443.4Z" fill="#124979" stroke="#124979"></path><path d="M129 460.6L160 503.4L172 457.6Z" fill="#051928" stroke="#051928"></path><path d="M63 332.7L113 415.7L120 332Z" fill="#00101c" stroke="#00101c"></path><path d="M762 476.6L811 447.6L730 405.4Z" fill="#124979" stroke="#124979"></path><path d="M900 379.7L853 326L828 330.9Z" fill="#052034" stroke="#052034"></path><path d="M725 524.3L762 508.4L712 478.6Z" fill="#195188" stroke="#195188"></path><path d="M741 543.1L762 508.4L725 524.3Z" fill="#195188" stroke="#195188"></path><path d="M834 135.4L796 116.7L797 136.6Z" fill="#0c406b" stroke="#0c406b"></path><path d="M797 136.6L796 116.7L754 93.9Z" fill="#195188" stroke="#195188"></path><path d="M717 52.9L743 4.9L655 0Z" fill="#0c406b" stroke="#0c406b"></path><path d="M113 415.7L129 460.6L151 443.4Z" fill="#00101c" stroke="#00101c"></path><path d="M815 156.3L769 184.3L846 216.1Z" fill="#051928" stroke="#051928"></path><path d="M165 55.6L178 100.4L199 98.9Z" fill="#00101c" stroke="#00101c"></path><path d="M97 147.3L100 170.4L141 183.4Z" fill="#2962a6" stroke="#2962a6"></path><path d="M193 0L199 98.9L276 21.7Z" fill="#052842" stroke="#052842"></path><path d="M846 216.1L769 184.3L809 252Z" fill="#052034" stroke="#052034"></path><path d="M834 135.4L800 102.6L796 116.7Z" fill="#0c406b" stroke="#0c406b"></path><path d="M238 600L251 585.1L235 565.1Z" fill="#0c406b" stroke="#0c406b"></path><path d="M251 585.1L251 600L278 600Z" fill="#2962a6" stroke="#2962a6"></path><path d="M278 600L41 627.1L286 600.1Z" fill="#195188" stroke="#195188"></path><path d="M160 503.4L169 526.1L220 456.7Z" fill="#0c406b" stroke="#0c406b"></path><path d="M174 577.1L238 600L235 565.1Z" fill="#124979" stroke="#124979"></path><path d="M122 529.3L169 526.1L160 503.4Z" fill="#124979" stroke="#124979"></path><path d="M743 556.3L741 543.1L715 533.1Z" fill="#052034" stroke="#052034"></path><path d="M715 533.1L741 543.1L725 524.3Z" fill="#124979" stroke="#124979"></path><path d="M97 147.3L141 183.4L147 101.9Z" fill="#06304f" stroke="#06304f"></path><path d="M770 517.1L762 476.6L762 508.4Z" fill="#052034" stroke="#052034"></path><path d="M834 491.3L811 447.6L762 476.6Z" fill="#06304f" stroke="#06304f"></path><path d="M764 536.4L770 517.1L762 508.4Z" fill="#052034" stroke="#052034"></path><path d="M174 577.1L235 565.1L199 545.3Z" fill="#051928" stroke="#051928"></path><path d="M41 627.1L344 600L286 600.1Z" fill="#124979" stroke="#124979"></path><path d="M834 135.4L797 136.6L813 153.7Z" fill="#2962a6" stroke="#2962a6"></path><path d="M796 116.7L800 102.6L754 93.9Z" fill="#06304f" stroke="#06304f"></path><path d="M85 468.3L120 472.6L129 460.6Z" fill="#052034" stroke="#052034"></path><path d="M129 460.6L120 472.6L160 503.4Z" fill="#195188" stroke="#195188"></path><path d="M703 600L618 517.4L596 536.4Z" fill="#0c406b" stroke="#0c406b"></path><path d="M741 543.1L764 536.4L762 508.4Z" fill="#00101c" stroke="#00101c"></path><path d="M853 326L792 300.1L828 330.9Z" fill="#00101c" stroke="#00101c"></path><path d="M864 223.3L846 216.1L809 252Z" fill="#205997" stroke="#205997"></path><path d="M815 156.3L834 135.4L813 153.7Z" fill="#052034" stroke="#052034"></path><path d="M128 78.6L147 101.9L153 72.7Z" fill="#2962a6" stroke="#2962a6"></path><path d="M78 99.9L97 147.3L147 101.9Z" fill="#2962a6" stroke="#2962a6"></path><path d="M100 170.4L65 279.3L101 290.9Z" fill="#051928" stroke="#051928"></path><path d="M743 556.3L764 536.4L741 543.1Z" fill="#124979" stroke="#124979"></path><path d="M770 517.1L834 491.3L762 476.6Z" fill="#195188" stroke="#195188"></path><path d="M900 348.9L853 326L900 379.7Z" fill="#00101c" stroke="#00101c"></path><path d="M330 -18.1L193 0L263 0Z" fill="#06304f" stroke="#06304f"></path><path d="M263 0L193 0L276 21.7Z" fill="#00101c" stroke="#00101c"></path><path d="M165 55.6L128 78.6L153 72.7Z" fill="#051928" stroke="#051928"></path><path d="M161 0L193 0L43 -20.1Z" fill="#205997" stroke="#205997"></path><path d="M109 0L128 78.6L165 55.6Z" fill="#052842" stroke="#052842"></path><path d="M193 0L179 12.7L199 98.9Z" fill="#2962a6" stroke="#2962a6"></path><path d="M529 600L703 600L596 536.4Z" fill="#0c406b" stroke="#0c406b"></path><path d="M743 556.3L789 600L764 536.4Z" fill="#052034" stroke="#052034"></path><path d="M783 625.1L703 600L529 600Z" fill="#051928" stroke="#051928"></path><path d="M0 240.4L65 279.3L0 199.6Z" fill="#06304f" stroke="#06304f"></path><path d="M101 290.9L63 332.7L108 301.1Z" fill="#205997" stroke="#205997"></path><path d="M113 415.7L85 468.3L129 460.6Z" fill="#052034" stroke="#052034"></path><path d="M743 4.9L787 17.7L762 0Z" fill="#06304f" stroke="#06304f"></path><path d="M655 0L762 0L560 -32.1Z" fill="#00101c" stroke="#00101c"></path><path d="M65 279.3L63 332.7L101 290.9Z" fill="#124979" stroke="#124979"></path><path d="M861 151.4L834 135.4L815 156.3Z" fill="#06304f" stroke="#06304f"></path><path d="M743 4.9L717 52.9L787 17.7Z" fill="#08385d" stroke="#08385d"></path><path d="M900 284.3L864 223.3L809 252Z" fill="#2962a6" stroke="#2962a6"></path><path d="M846 216.1L861 151.4L815 156.3Z" fill="#08385d" stroke="#08385d"></path><path d="M122 529.3L174 577.1L169 526.1Z" fill="#195188" stroke="#195188"></path><path d="M169 526.1L174 577.1L199 545.3Z" fill="#195188" stroke="#195188"></path><path d="M717 52.9L754 93.9L787 17.7Z" fill="#205997" stroke="#205997"></path><path d="M743 4.9L762 0L655 0Z" fill="#052842" stroke="#052842"></path><path d="M43 -20.1L193 0L330 -18.1Z" fill="#06304f" stroke="#06304f"></path><path d="M193 0L161 0L179 12.7Z" fill="#124979" stroke="#124979"></path><path d="M179 12.7L161 0L165 55.6Z" fill="#124979" stroke="#124979"></path><path d="M128 78.6L101 77.6L147 101.9Z" fill="#2962a6" stroke="#2962a6"></path><path d="M783 625.1L737 600L703 600Z" fill="#0c406b" stroke="#0c406b"></path><path d="M703 600L737 600L743 556.3Z" fill="#205997" stroke="#205997"></path><path d="M830 574.1L834 491.3L770 517.1Z" fill="#052034" stroke="#052034"></path><path d="M787 17.7L754 93.9L800 102.6Z" fill="#195188" stroke="#195188"></path><path d="M762 0L764 0L560 -32.1Z" fill="#124979" stroke="#124979"></path><path d="M109 0L101 77.6L128 78.6Z" fill="#052842" stroke="#052842"></path><path d="M97 147.3L36 154.7L100 170.4Z" fill="#051928" stroke="#051928"></path><path d="M85 468.3L122 529.3L120 472.6Z" fill="#051928" stroke="#051928"></path><path d="M120 472.6L122 529.3L160 503.4Z" fill="#051928" stroke="#051928"></path><path d="M76 462.6L85 468.3L113 415.7Z" fill="#2962a6" stroke="#2962a6"></path><path d="M783 625.1L741 600L737 600Z" fill="#052842" stroke="#052842"></path><path d="M737 600L741 600L743 556.3Z" fill="#124979" stroke="#124979"></path><path d="M864 223.3L861 151.4L846 216.1Z" fill="#195188" stroke="#195188"></path><path d="M820 0L787 17.7L842 8.9Z" fill="#051928" stroke="#051928"></path><path d="M787 17.7L800 102.6L842 8.9Z" fill="#195188" stroke="#195188"></path><path d="M0 391.9L76 462.6L113 415.7Z" fill="#00101c" stroke="#00101c"></path><path d="M85 468.3L76 472.4L122 529.3Z" fill="#195188" stroke="#195188"></path><path d="M830 574.1L770 517.1L764 536.4Z" fill="#0c406b" stroke="#0c406b"></path><path d="M900 379.7L828 330.9L800 397.7Z" fill="#06304f" stroke="#06304f"></path><path d="M787 17.7L775 0L764 0Z" fill="#051928" stroke="#051928"></path><path d="M764 0L775 0L560 -32.1Z" fill="#205997" stroke="#205997"></path><path d="M76 28.7L78 99.9L101 77.6Z" fill="#195188" stroke="#195188"></path><path d="M101 77.6L78 99.9L147 101.9Z" fill="#052842" stroke="#052842"></path><path d="M23 495.3L76 472.4L76 462.6Z" fill="#195188" stroke="#195188"></path><path d="M76 462.6L76 472.4L85 468.3Z" fill="#195188" stroke="#195188"></path><path d="M853 326L900 284.3L809 252Z" fill="#052842" stroke="#052842"></path><path d="M864 223.3L900 215.4L861 151.4Z" fill="#08385d" stroke="#08385d"></path><path d="M900 348.9L900 284.3L853 326Z" fill="#205997" stroke="#205997"></path><path d="M900 284.3L900 242L864 223.3Z" fill="#0c406b" stroke="#0c406b"></path><path d="M900 242L900 226.1L864 223.3Z" fill="#052034" stroke="#052034"></path><path d="M900 379.7L800 397.7L900 398.4Z" fill="#0c406b" stroke="#0c406b"></path><path d="M900 226.1L900 215.4L864 223.3Z" fill="#052034" stroke="#052034"></path><path d="M842 8.9L800 102.6L878 53.6Z" fill="#08385d" stroke="#08385d"></path><path d="M37 136.4L36 154.7L97 147.3Z" fill="#052842" stroke="#052842"></path><path d="M65 279.3L2 317L63 332.7Z" fill="#195188" stroke="#195188"></path><path d="M63 332.7L0 391.9L113 415.7Z" fill="#052842" stroke="#052842"></path><path d="M900 398.4L800 397.7L900 418.6Z" fill="#052842" stroke="#052842"></path><path d="M0 55.7L37 136.4L78 99.9Z" fill="#052842" stroke="#052842"></path><path d="M78 99.9L37 136.4L97 147.3Z" fill="#124979" stroke="#124979"></path><path d="M900 418.6L800 397.7L811 447.6Z" fill="#00101c" stroke="#00101c"></path><path d="M783 625.1L789 600L741 600Z" fill="#051928" stroke="#051928"></path><path d="M741 600L789 600L743 556.3Z" fill="#124979" stroke="#124979"></path><path d="M890 451.6L900 418.6L811 447.6Z" fill="#2962a6" stroke="#2962a6"></path><path d="M900 418.6L903 393.7L900 398.4Z" fill="#205997" stroke="#205997"></path><path d="M900 398.4L903 393.7L900 379.7Z" fill="#051928" stroke="#051928"></path><path d="M900 379.7L914 371L900 348.9Z" fill="#06304f" stroke="#06304f"></path><path d="M900 348.9L923 333.9L900 284.3Z" fill="#205997" stroke="#205997"></path><path d="M900 284.3L923 333.9L900 242Z" fill="#195188" stroke="#195188"></path><path d="M900 242L923 333.9L900 226.1Z" fill="#0c406b" stroke="#0c406b"></path><path d="M900 226.1L923 333.9L900 215.4Z" fill="#0c406b" stroke="#0c406b"></path><path d="M43 -20.1L109 0L161 0Z" fill="#08385d" stroke="#08385d"></path><path d="M161 0L109 0L165 55.6Z" fill="#124979" stroke="#124979"></path><path d="M890 451.6L811 447.6L834 491.3Z" fill="#00101c" stroke="#00101c"></path><path d="M900 458.3L890 451.6L900 493.1Z" fill="#052034" stroke="#052034"></path><path d="M800 102.6L834 135.4L878 53.6Z" fill="#052842" stroke="#052842"></path><path d="M787 17.7L820 0L775 0Z" fill="#051928" stroke="#051928"></path><path d="M775 0L820 0L560 -32.1Z" fill="#195188" stroke="#195188"></path><path d="M41 627.1L278 600L251 600Z" fill="#052034" stroke="#052034"></path><path d="M174 577.1L125 600L238 600Z" fill="#205997" stroke="#205997"></path><path d="M122 529.3L125 600L174 577.1Z" fill="#052034" stroke="#052034"></path><path d="M76 576.1L125 600L122 529.3Z" fill="#2962a6" stroke="#2962a6"></path><path d="M904 426.4L914 371L903 393.7Z" fill="#00101c" stroke="#00101c"></path><path d="M903 393.7L914 371L900 379.7Z" fill="#052842" stroke="#052842"></path><path d="M0 271.3L65 279.3L0 255.1Z" fill="#124979" stroke="#124979"></path><path d="M0 271.3L2 317L65 279.3Z" fill="#052034" stroke="#052034"></path><path d="M76 472.4L76 576.1L122 529.3Z" fill="#195188" stroke="#195188"></path><path d="M0 255.1L65 279.3L0 250Z" fill="#205997" stroke="#205997"></path><path d="M0 250L65 279.3L0 240.4Z" fill="#052842" stroke="#052842"></path><path d="M65 279.3L100 170.4L0 199.6Z" fill="#052034" stroke="#052034"></path><path d="M914 371L923 333.9L900 348.9Z" fill="#195188" stroke="#195188"></path><path d="M890 451.6L904 426.4L900 418.6Z" fill="#052034" stroke="#052034"></path><path d="M900 418.6L904 426.4L903 393.7Z" fill="#052842" stroke="#052842"></path><path d="M914 371L900 493.1L923 333.9Z" fill="#205997" stroke="#205997"></path><path d="M0 199.6L100 170.4L36 154.7Z" fill="#124979" stroke="#124979"></path><path d="M109 0L76 28.7L101 77.6Z" fill="#205997" stroke="#205997"></path><path d="M41 627.1L391 600L344 600Z" fill="#00101c" stroke="#00101c"></path><path d="M789 600L830 574.1L764 536.4Z" fill="#0c406b" stroke="#0c406b"></path><path d="M41 627.1L251 600L238 600Z" fill="#052034" stroke="#052034"></path><path d="M-19 346.9L0 354.6L2 317Z" fill="#0c406b" stroke="#0c406b"></path><path d="M2 317L0 354.6L63 332.7Z" fill="#06304f" stroke="#06304f"></path><path d="M811 600L830 574.1L789 600Z" fill="#051928" stroke="#051928"></path><path d="M890 451.6L900 458.3L904 426.4Z" fill="#124979" stroke="#124979"></path><path d="M783 625.1L811 600L789 600Z" fill="#195188" stroke="#195188"></path><path d="M0 354.6L0 372.7L63 332.7Z" fill="#08385d" stroke="#08385d"></path><path d="M-24 190.6L36 154.7L37 136.4Z" fill="#2962a6" stroke="#2962a6"></path><path d="M-24 190.6L0 199.6L36 154.7Z" fill="#052842" stroke="#052842"></path><path d="M900 493.1L890 451.6L834 491.3Z" fill="#06304f" stroke="#06304f"></path><path d="M904 426.4L900 493.1L914 371Z" fill="#06304f" stroke="#06304f"></path><path d="M900 101.6L834 135.4L861 151.4Z" fill="#2962a6" stroke="#2962a6"></path><path d="M0 372.7L0 391.9L63 332.7Z" fill="#2962a6" stroke="#2962a6"></path><path d="M-24 190.6L-12 254.1L0 240.4Z" fill="#124979" stroke="#124979"></path><path d="M0 240.4L-12 254.1L0 250Z" fill="#052842" stroke="#052842"></path><path d="M0 250L-12 254.1L0 255.1Z" fill="#205997" stroke="#205997"></path><path d="M0 255.1L-12 254.1L0 271.3Z" fill="#08385d" stroke="#08385d"></path><path d="M0 271.3L-18 279.3L2 317Z" fill="#0c406b" stroke="#0c406b"></path><path d="M0 354.6L-19 346.9L0 372.7Z" fill="#052034" stroke="#052034"></path><path d="M0 372.7L-24 413.7L0 391.9Z" fill="#06304f" stroke="#06304f"></path><path d="M900 215.4L900 101.6L861 151.4Z" fill="#06304f" stroke="#06304f"></path><path d="M914 68.9L900 101.6L900 215.4Z" fill="#051928" stroke="#051928"></path><path d="M900 101.6L878 53.6L834 135.4Z" fill="#00101c" stroke="#00101c"></path><path d="M783 625.1L825 600L811 600Z" fill="#06304f" stroke="#06304f"></path><path d="M811 600L825 600L830 574.1Z" fill="#2962a6" stroke="#2962a6"></path><path d="M881 547.3L900 493.1L834 491.3Z" fill="#08385d" stroke="#08385d"></path><path d="M-24 190.6L-18 279.3L-12 254.1Z" fill="#051928" stroke="#051928"></path><path d="M-12 254.1L-18 279.3L0 271.3Z" fill="#2962a6" stroke="#2962a6"></path><path d="M23 495.3L76 576.1L76 472.4Z" fill="#0c406b" stroke="#0c406b"></path><path d="M881 547.3L834 491.3L830 574.1Z" fill="#124979" stroke="#124979"></path><path d="M900 458.3L900 493.1L904 426.4Z" fill="#052842" stroke="#052842"></path><path d="M-18 279.3L-19 346.9L2 317Z" fill="#00101c" stroke="#00101c"></path><path d="M0 481.4L23 495.3L76 462.6Z" fill="#00101c" stroke="#00101c"></path><path d="M0 481.4L76 462.6L0 391.9Z" fill="#205997" stroke="#205997"></path><path d="M76 576.1L85 600L125 600Z" fill="#00101c" stroke="#00101c"></path><path d="M125 600L41 627.1L238 600Z" fill="#052034" stroke="#052034"></path><path d="M41 627.1L85 600L76 576.1Z" fill="#051928" stroke="#051928"></path><path d="M825 600L853 584.3L830 574.1Z" fill="#052842" stroke="#052842"></path><path d="M900 600L853 584.3L825 600Z" fill="#124979" stroke="#124979"></path><path d="M853 584.3L881 547.3L830 574.1Z" fill="#00101c" stroke="#00101c"></path><path d="M0 199.6L-24 190.6L0 240.4Z" fill="#051928" stroke="#051928"></path><path d="M-18 279.3L-24 190.6L-19 346.9Z" fill="#195188" stroke="#195188"></path><path d="M0 55.7L-24 190.6L37 136.4Z" fill="#06304f" stroke="#06304f"></path><path d="M-24 413.7L0 481.4L0 391.9Z" fill="#08385d" stroke="#08385d"></path><path d="M23 495.3L0 529.3L76 576.1Z" fill="#0c406b" stroke="#0c406b"></path><path d="M914 68.9L878 53.6L900 101.6Z" fill="#0c406b" stroke="#0c406b"></path><path d="M914 68.9L900 42.7L878 53.6Z" fill="#0c406b" stroke="#0c406b"></path><path d="M878 53.6L900 19.9L842 8.9Z" fill="#06304f" stroke="#06304f"></path><path d="M923 333.9L914 68.9L900 215.4Z" fill="#195188" stroke="#195188"></path><path d="M-24 190.6L-24 413.7L-19 346.9Z" fill="#2962a6" stroke="#2962a6"></path><path d="M-19 346.9L-24 413.7L0 372.7Z" fill="#205997" stroke="#205997"></path><path d="M914 68.9L900 19.9L900 42.7Z" fill="#124979" stroke="#124979"></path><path d="M900 42.7L900 19.9L878 53.6Z" fill="#195188" stroke="#195188"></path><path d="M842 8.9L900 0L820 0Z" fill="#051928" stroke="#051928"></path><path d="M0 41.9L0 55.7L76 28.7Z" fill="#051928" stroke="#051928"></path><path d="M76 28.7L0 55.7L78 99.9Z" fill="#205997" stroke="#205997"></path><path d="M109 0L43 -20.1L76 28.7Z" fill="#06304f" stroke="#06304f"></path><path d="M387 -32.1L43 -20.1L330 -18.1Z" fill="#052034" stroke="#052034"></path><path d="M-24 413.7L0 529.3L0 481.4Z" fill="#2962a6" stroke="#2962a6"></path><path d="M0 481.4L0 529.3L23 495.3Z" fill="#0c406b" stroke="#0c406b"></path><path d="M15 0L0 41.9L76 28.7Z" fill="#00101c" stroke="#00101c"></path><path d="M0 55.7L0 41.9L-24 190.6Z" fill="#0c406b" stroke="#0c406b"></path><path d="M914 68.9L900 0L900 19.9Z" fill="#052842" stroke="#052842"></path><path d="M900 19.9L900 0L842 8.9Z" fill="#205997" stroke="#205997"></path><path d="M820 0L900 0L560 -32.1Z" fill="#052034" stroke="#052034"></path><path d="M-7 600L0 548.1L0 529.3Z" fill="#052034" stroke="#052034"></path><path d="M0 529.3L0 548.1L76 576.1Z" fill="#052842" stroke="#052842"></path><path d="M43 -20.1L15 0L76 28.7Z" fill="#0c406b" stroke="#0c406b"></path><path d="M783 625.1L900 600L825 600Z" fill="#052034" stroke="#052034"></path><path d="M853 584.3L900 600L881 547.3Z" fill="#195188" stroke="#195188"></path><path d="M881 547.3L900 600L900 493.1Z" fill="#051928" stroke="#051928"></path><path d="M900 493.1L900 600L923 333.9Z" fill="#052034" stroke="#052034"></path><path d="M0 600L41 627.1L76 576.1Z" fill="#2962a6" stroke="#2962a6"></path><path d="M85 600L41 627.1L125 600Z" fill="#124979" stroke="#124979"></path><path d="M43 -20.1L0 0L15 0Z" fill="#08385d" stroke="#08385d"></path><path d="M15 0L0 0L0 41.9Z" fill="#051928" stroke="#051928"></path><path d="M0 41.9L0 0L-24 190.6Z" fill="#08385d" stroke="#08385d"></path><path d="M-7 600L0 600L0 548.1Z" fill="#08385d" stroke="#08385d"></path><path d="M0 548.1L0 600L76 576.1Z" fill="#0c406b" stroke="#0c406b"></path><path d="M-24 413.7L-7 600L0 529.3Z" fill="#06304f" stroke="#06304f"></path><path d="M0 600L-7 600L41 627.1Z" fill="#00101c" stroke="#00101c"></path></g></svg>