<svg id="visual" viewBox="0 0 900 600" width="900" height="600" xmlns="http://www.w3.org/2000/svg" xmlns:xlink="http://www.w3.org/1999/xlink" version="1.1"><g stroke-width="1" stroke-linejoin="bevel"><path d="M469 292.7L514 311.1L499 276.3Z" fill="#051e29" stroke="#051e29"></path><path d="M514 311.1L537 298L499 276.3Z" fill="#00454d" stroke="#00454d"></path><path d="M469 292.7L513 343L514 311.1Z" fill="#169400" stroke="#169400"></path><path d="M514 311.1L555 311.9L537 298Z" fill="#169400" stroke="#169400"></path><path d="M513 343L555 311.9L514 311.1Z" fill="#003742" stroke="#003742"></path><path d="M555 311.9L569 272L537 298Z" fill="#003742" stroke="#003742"></path><path d="M537 298L569 272L499 276.3Z" fill="#007d4a" stroke="#007d4a"></path><path d="M537 378.7L575 314.1L555 311.9Z" fill="#169400" stroke="#169400"></path><path d="M555 311.9L575 314.1L569 272Z" fill="#003742" stroke="#003742"></path><path d="M403 261.1L407 298.3L469 292.7Z" fill="#00111c" stroke="#00111c"></path><path d="M469 292.7L415 341.6L513 343Z" fill="#00625b" stroke="#00625b"></path><path d="M407 298.3L415 341.6L469 292.7Z" fill="#00625b" stroke="#00625b"></path><path d="M415 341.6L482 388.6L513 343Z" fill="#051e29" stroke="#051e29"></path><path d="M513 343L537 378.7L555 311.9Z" fill="#005356" stroke="#005356"></path><path d="M528 393.9L537 378.7L513 343Z" fill="#00625b" stroke="#00625b"></path><path d="M555 224.4L487 208.4L499 276.3Z" fill="#003742" stroke="#003742"></path><path d="M499 276.3L435 225L469 292.7Z" fill="#169400" stroke="#169400"></path><path d="M487 208.4L435 225L499 276.3Z" fill="#005356" stroke="#005356"></path><path d="M435 225L403 261.1L469 292.7Z" fill="#003742" stroke="#003742"></path><path d="M569 272L555 224.4L499 276.3Z" fill="#007057" stroke="#007057"></path><path d="M482 388.6L528 393.9L513 343Z" fill="#169400" stroke="#169400"></path><path d="M575 314.1L592 272.3L569 272Z" fill="#022a36" stroke="#022a36"></path><path d="M569 272L592 272.3L555 224.4Z" fill="#022a36" stroke="#022a36"></path><path d="M555 224.4L490 194.3L487 208.4Z" fill="#005356" stroke="#005356"></path><path d="M487 208.4L490 194.3L435 225Z" fill="#005356" stroke="#005356"></path><path d="M407 298.3L388 332.9L415 341.6Z" fill="#169400" stroke="#169400"></path><path d="M415 341.6L446 399.9L482 388.6Z" fill="#00111c" stroke="#00111c"></path><path d="M377 333L388 332.9L407 298.3Z" fill="#00454d" stroke="#00454d"></path><path d="M410 374L446 399.9L415 341.6Z" fill="#008933" stroke="#008933"></path><path d="M519 427.3L535 410.4L528 393.9Z" fill="#007057" stroke="#007057"></path><path d="M388 332.9L410 374L415 341.6Z" fill="#051e29" stroke="#051e29"></path><path d="M397 207.1L387 253.1L403 261.1Z" fill="#007d4a" stroke="#007d4a"></path><path d="M403 261.1L378 275.1L407 298.3Z" fill="#00111c" stroke="#00111c"></path><path d="M387 253.1L378 275.1L403 261.1Z" fill="#00454d" stroke="#00454d"></path><path d="M519 427.3L528 393.9L482 388.6Z" fill="#005356" stroke="#005356"></path><path d="M528 393.9L535 410.4L537 378.7Z" fill="#00454d" stroke="#00454d"></path><path d="M537 378.7L585 392.4L575 314.1Z" fill="#00625b" stroke="#00625b"></path><path d="M378 275.1L377 333L407 298.3Z" fill="#051e29" stroke="#051e29"></path><path d="M388 332.9L372 340.7L410 374Z" fill="#008933" stroke="#008933"></path><path d="M339 315.7L372 340.7L377 333Z" fill="#022a36" stroke="#022a36"></path><path d="M377 333L372 340.7L388 332.9Z" fill="#169400" stroke="#169400"></path><path d="M451 438.9L519 427.3L482 388.6Z" fill="#005356" stroke="#005356"></path><path d="M565 421.6L537 378.7L535 410.4Z" fill="#007057" stroke="#007057"></path><path d="M565 421.6L585 392.4L537 378.7Z" fill="#022a36" stroke="#022a36"></path><path d="M575 314.1L645 310.3L592 272.3Z" fill="#008933" stroke="#008933"></path><path d="M414 191.6L397 207.1L435 225Z" fill="#00625b" stroke="#00625b"></path><path d="M435 225L397 207.1L403 261.1Z" fill="#00111c" stroke="#00111c"></path><path d="M324 323L339 315.7L297 302.9Z" fill="#005356" stroke="#005356"></path><path d="M490 194.3L414 191.6L435 225Z" fill="#003742" stroke="#003742"></path><path d="M592 272.3L598 211.1L555 224.4Z" fill="#008933" stroke="#008933"></path><path d="M555 224.4L534 154.3L490 194.3Z" fill="#005356" stroke="#005356"></path><path d="M669 198.4L598 211.1L592 272.3Z" fill="#007057" stroke="#007057"></path><path d="M372 340.7L396 400.6L410 374Z" fill="#005356" stroke="#005356"></path><path d="M410 374L396 400.6L446 399.9Z" fill="#007d4a" stroke="#007d4a"></path><path d="M446 399.9L451 438.9L482 388.6Z" fill="#007d4a" stroke="#007d4a"></path><path d="M524 479.3L530 434.9L519 427.3Z" fill="#051e29" stroke="#051e29"></path><path d="M519 427.3L530 434.9L535 410.4Z" fill="#007057" stroke="#007057"></path><path d="M530 434.9L565 421.6L535 410.4Z" fill="#169400" stroke="#169400"></path><path d="M423 155.4L411 181.4L414 191.6Z" fill="#00454d" stroke="#00454d"></path><path d="M414 191.6L396 191.3L397 207.1Z" fill="#051e29" stroke="#051e29"></path><path d="M423 155.4L414 191.6L490 194.3Z" fill="#169400" stroke="#169400"></path><path d="M396 400.6L451 438.9L446 399.9Z" fill="#00625b" stroke="#00625b"></path><path d="M411 181.4L396 191.3L414 191.6Z" fill="#005356" stroke="#005356"></path><path d="M297 214L321 269L387 253.1Z" fill="#008933" stroke="#008933"></path><path d="M563 145.7L534 154.3L555 224.4Z" fill="#007057" stroke="#007057"></path><path d="M634 388.6L575 314.1L585 392.4Z" fill="#008933" stroke="#008933"></path><path d="M634 388.6L645 310.3L575 314.1Z" fill="#00625b" stroke="#00625b"></path><path d="M339 315.7L378 275.1L321 269Z" fill="#051e29" stroke="#051e29"></path><path d="M378 275.1L339 315.7L377 333Z" fill="#022a36" stroke="#022a36"></path><path d="M372 340.7L317 355.6L396 400.6Z" fill="#00111c" stroke="#00111c"></path><path d="M439 137.9L423 155.4L490 194.3Z" fill="#022a36" stroke="#022a36"></path><path d="M411 181.4L423 155.4L396 191.3Z" fill="#00625b" stroke="#00625b"></path><path d="M643 442.3L634 388.6L585 392.4Z" fill="#169400" stroke="#169400"></path><path d="M324 323L328 331.9L339 315.7Z" fill="#051e29" stroke="#051e29"></path><path d="M339 315.7L328 331.9L372 340.7Z" fill="#005356" stroke="#005356"></path><path d="M598 211.1L563 145.7L555 224.4Z" fill="#00454d" stroke="#00454d"></path><path d="M484 120.6L439 137.9L490 194.3Z" fill="#022a36" stroke="#022a36"></path><path d="M321 269L378 275.1L387 253.1Z" fill="#169400" stroke="#169400"></path><path d="M484 120.6L490 194.3L534 154.3Z" fill="#003742" stroke="#003742"></path><path d="M303 264.4L321 269L297 214Z" fill="#051e29" stroke="#051e29"></path><path d="M315 181.3L387 253.1L397 207.1Z" fill="#005356" stroke="#005356"></path><path d="M395 480.6L447 468.3L451 438.9Z" fill="#008933" stroke="#008933"></path><path d="M482 493.6L524 479.3L519 427.3Z" fill="#008933" stroke="#008933"></path><path d="M530 434.9L585 450.7L565 421.6Z" fill="#00111c" stroke="#00111c"></path><path d="M395 480.6L451 438.9L396 400.6Z" fill="#169400" stroke="#169400"></path><path d="M524 479.3L585 450.7L530 434.9Z" fill="#00111c" stroke="#00111c"></path><path d="M565 421.6L585 450.7L585 392.4Z" fill="#00454d" stroke="#00454d"></path><path d="M692 327.1L671 293.1L645 310.3Z" fill="#005356" stroke="#005356"></path><path d="M645 310.3L671 293.1L592 272.3Z" fill="#022a36" stroke="#022a36"></path><path d="M598 211.1L610 148.6L563 145.7Z" fill="#003742" stroke="#003742"></path><path d="M505 94.7L484 120.6L534 154.3Z" fill="#051e29" stroke="#051e29"></path><path d="M482 493.6L519 427.3L451 438.9Z" fill="#005356" stroke="#005356"></path><path d="M439 137.9L431 127.4L423 155.4Z" fill="#007d4a" stroke="#007d4a"></path><path d="M368 74.6L315 181.3L396 191.3Z" fill="#051e29" stroke="#051e29"></path><path d="M445 112.9L431 127.4L439 137.9Z" fill="#00625b" stroke="#00625b"></path><path d="M295 322.9L317 355.6L328 331.9Z" fill="#051e29" stroke="#051e29"></path><path d="M328 331.9L317 355.6L372 340.7Z" fill="#007d4a" stroke="#007d4a"></path><path d="M295 322.9L328 331.9L324 323Z" fill="#022a36" stroke="#022a36"></path><path d="M596 481.1L594 456.7L585 450.7Z" fill="#003742" stroke="#003742"></path><path d="M585 450.7L643 442.3L585 392.4Z" fill="#051e29" stroke="#051e29"></path><path d="M634 170.1L610 148.6L598 211.1Z" fill="#00111c" stroke="#00111c"></path><path d="M563 145.7L505 94.7L534 154.3Z" fill="#00111c" stroke="#00111c"></path><path d="M669 198.4L634 170.1L598 211.1Z" fill="#022a36" stroke="#022a36"></path><path d="M315 181.3L397 207.1L396 191.3Z" fill="#169400" stroke="#169400"></path><path d="M321 269L297 302.9L339 315.7Z" fill="#00111c" stroke="#00111c"></path><path d="M484 120.6L445 112.9L439 137.9Z" fill="#008933" stroke="#008933"></path><path d="M447 468.3L482 493.6L451 438.9Z" fill="#051e29" stroke="#051e29"></path><path d="M558 511.4L596 481.1L585 450.7Z" fill="#003742" stroke="#003742"></path><path d="M303 264.4L297 302.9L321 269Z" fill="#00454d" stroke="#00454d"></path><path d="M297 302.9L295 322.9L324 323Z" fill="#005356" stroke="#005356"></path><path d="M694 359L645 310.3L634 388.6Z" fill="#169400" stroke="#169400"></path><path d="M694 359L692 327.1L645 310.3Z" fill="#051e29" stroke="#051e29"></path><path d="M671 293.1L669 198.4L592 272.3Z" fill="#007d4a" stroke="#007d4a"></path><path d="M634 170.1L613 136.6L610 148.6Z" fill="#169400" stroke="#169400"></path><path d="M610 148.6L613 136.6L563 145.7Z" fill="#003742" stroke="#003742"></path><path d="M484 120.6L471 70.6L445 112.9Z" fill="#007057" stroke="#007057"></path><path d="M698 235.4L669 198.4L671 293.1Z" fill="#00625b" stroke="#00625b"></path><path d="M634 170.1L657 140.9L613 136.6Z" fill="#051e29" stroke="#051e29"></path><path d="M718 289.3L696 274.9L671 293.1Z" fill="#008933" stroke="#008933"></path><path d="M402 495.4L395 480.6L389 512.1Z" fill="#00454d" stroke="#00454d"></path><path d="M356 484.4L395 480.6L396 400.6Z" fill="#00625b" stroke="#00625b"></path><path d="M447 468.3L479 505.1L482 493.6Z" fill="#169400" stroke="#169400"></path><path d="M297 302.9L287 301.3L295 322.9Z" fill="#007057" stroke="#007057"></path><path d="M279 286.3L287 301.3L297 302.9Z" fill="#007057" stroke="#007057"></path><path d="M594 35.6L505 94.7L563 145.7Z" fill="#00454d" stroke="#00454d"></path><path d="M402 495.4L479 505.1L447 468.3Z" fill="#051e29" stroke="#051e29"></path><path d="M482 493.6L518 504.1L524 479.3Z" fill="#007d4a" stroke="#007d4a"></path><path d="M479 505.1L518 504.1L482 493.6Z" fill="#008933" stroke="#008933"></path><path d="M596 481.1L615 465.7L594 456.7Z" fill="#003742" stroke="#003742"></path><path d="M594 456.7L643 442.3L585 450.7Z" fill="#051e29" stroke="#051e29"></path><path d="M615 465.7L643 442.3L594 456.7Z" fill="#00111c" stroke="#00111c"></path><path d="M558 511.4L585 450.7L524 479.3Z" fill="#051e29" stroke="#051e29"></path><path d="M471 70.6L424 102.4L445 112.9Z" fill="#00111c" stroke="#00111c"></path><path d="M445 112.9L424 102.4L431 127.4Z" fill="#00625b" stroke="#00625b"></path><path d="M431 127.4L424 102.4L423 155.4Z" fill="#169400" stroke="#169400"></path><path d="M682 396.7L694 359L634 388.6Z" fill="#00625b" stroke="#00625b"></path><path d="M692 327.1L718 289.3L671 293.1Z" fill="#022a36" stroke="#022a36"></path><path d="M643 442.3L682 396.7L634 388.6Z" fill="#00111c" stroke="#00111c"></path><path d="M368 74.6L396 191.3L423 155.4Z" fill="#005356" stroke="#005356"></path><path d="M303 264.4L279 286.3L297 302.9Z" fill="#00111c" stroke="#00111c"></path><path d="M315 181.3L297 214L387 253.1Z" fill="#022a36" stroke="#022a36"></path><path d="M249 218.6L279 286.3L303 264.4Z" fill="#003742" stroke="#003742"></path><path d="M262 370L289 372.4L295 322.9Z" fill="#169400" stroke="#169400"></path><path d="M696 274.9L698 235.4L671 293.1Z" fill="#007d4a" stroke="#007d4a"></path><path d="M725 262.1L698 235.4L696 274.9Z" fill="#022a36" stroke="#022a36"></path><path d="M299 444.7L396 400.6L317 355.6Z" fill="#00625b" stroke="#00625b"></path><path d="M395 480.6L402 495.4L447 468.3Z" fill="#00454d" stroke="#00454d"></path><path d="M262 370L295 322.9L226 292.7Z" fill="#003742" stroke="#003742"></path><path d="M295 322.9L289 372.4L317 355.6Z" fill="#005356" stroke="#005356"></path><path d="M559 564.1L558 511.4L518 504.1Z" fill="#008933" stroke="#008933"></path><path d="M518 504.1L558 511.4L524 479.3Z" fill="#022a36" stroke="#022a36"></path><path d="M733 301.1L692 327.1L762 321.7Z" fill="#00111c" stroke="#00111c"></path><path d="M733 301.1L718 289.3L692 327.1Z" fill="#008933" stroke="#008933"></path><path d="M694 187.3L669 198.4L698 235.4Z" fill="#00625b" stroke="#00625b"></path><path d="M694 187.3L687 183.6L669 198.4Z" fill="#007057" stroke="#007057"></path><path d="M669 198.4L687 183.6L634 170.1Z" fill="#007d4a" stroke="#007d4a"></path><path d="M558 511.4L577 510.6L596 481.1Z" fill="#022a36" stroke="#022a36"></path><path d="M671 536.1L689 452.4L615 465.7Z" fill="#003742" stroke="#003742"></path><path d="M615 465.7L689 452.4L643 442.3Z" fill="#005356" stroke="#005356"></path><path d="M687 183.6L657 140.9L634 170.1Z" fill="#005356" stroke="#005356"></path><path d="M518 30.9L474 60.7L505 94.7Z" fill="#007057" stroke="#007057"></path><path d="M299 444.7L356 484.4L396 400.6Z" fill="#005356" stroke="#005356"></path><path d="M697 453.4L705 387L682 396.7Z" fill="#007057" stroke="#007057"></path><path d="M682 396.7L705 387L694 359Z" fill="#022a36" stroke="#022a36"></path><path d="M689 452.4L682 396.7L643 442.3Z" fill="#022a36" stroke="#022a36"></path><path d="M474 60.7L471 70.6L505 94.7Z" fill="#169400" stroke="#169400"></path><path d="M505 94.7L471 70.6L484 120.6Z" fill="#008933" stroke="#008933"></path><path d="M718 228L694 187.3L698 235.4Z" fill="#00111c" stroke="#00111c"></path><path d="M687 183.6L691 96.4L657 140.9Z" fill="#00625b" stroke="#00625b"></path><path d="M739 269.9L725 262.1L718 289.3Z" fill="#007d4a" stroke="#007d4a"></path><path d="M718 289.3L725 262.1L696 274.9Z" fill="#00625b" stroke="#00625b"></path><path d="M356 484.4L389 512.1L395 480.6Z" fill="#00625b" stroke="#00625b"></path><path d="M402 495.4L476 559.4L479 505.1Z" fill="#169400" stroke="#169400"></path><path d="M479 505.1L476 559.4L518 504.1Z" fill="#008933" stroke="#008933"></path><path d="M725 262.1L718 228L698 235.4Z" fill="#007d4a" stroke="#007d4a"></path><path d="M626 89.9L563 145.7L613 136.6Z" fill="#169400" stroke="#169400"></path><path d="M471 70.6L426 54.7L424 102.4Z" fill="#169400" stroke="#169400"></path><path d="M424 102.4L368 74.6L423 155.4Z" fill="#008933" stroke="#008933"></path><path d="M762 321.7L692 327.1L694 359Z" fill="#008933" stroke="#008933"></path><path d="M725 262.1L739 269.9L718 228Z" fill="#022a36" stroke="#022a36"></path><path d="M226 292.7L295 322.9L287 301.3Z" fill="#008933" stroke="#008933"></path><path d="M289 372.4L299 444.7L317 355.6Z" fill="#00111c" stroke="#00111c"></path><path d="M251 398.7L299 444.7L289 372.4Z" fill="#00111c" stroke="#00111c"></path><path d="M334 554.4L397 565.3L389 512.1Z" fill="#022a36" stroke="#022a36"></path><path d="M733 301.1L739 269.9L718 289.3Z" fill="#008933" stroke="#008933"></path><path d="M647 87.9L626 89.9L657 140.9Z" fill="#008933" stroke="#008933"></path><path d="M657 140.9L626 89.9L613 136.6Z" fill="#005356" stroke="#005356"></path><path d="M715 483.4L689 452.4L671 536.1Z" fill="#005356" stroke="#005356"></path><path d="M761 371.7L762 321.7L694 359Z" fill="#051e29" stroke="#051e29"></path><path d="M429 47.7L426 54.7L471 70.6Z" fill="#022a36" stroke="#022a36"></path><path d="M715 483.4L697 453.4L689 452.4Z" fill="#051e29" stroke="#051e29"></path><path d="M689 452.4L697 453.4L682 396.7Z" fill="#00454d" stroke="#00454d"></path><path d="M315 181.3L249 218.6L297 214Z" fill="#00454d" stroke="#00454d"></path><path d="M297 214L249 218.6L303 264.4Z" fill="#00454d" stroke="#00454d"></path><path d="M279 286.3L226 292.7L287 301.3Z" fill="#007057" stroke="#007057"></path><path d="M222 210.6L249 218.6L315 181.3Z" fill="#003742" stroke="#003742"></path><path d="M396 49.6L368 74.6L424 102.4Z" fill="#00111c" stroke="#00111c"></path><path d="M474 60.7L429 47.7L471 70.6Z" fill="#00454d" stroke="#00454d"></path><path d="M426 54.7L396 49.6L424 102.4Z" fill="#051e29" stroke="#051e29"></path><path d="M510 0L429 47.7L474 60.7Z" fill="#008933" stroke="#008933"></path><path d="M397 565.3L476 559.4L402 495.4Z" fill="#00454d" stroke="#00454d"></path><path d="M558 511.4L559 564.1L577 510.6Z" fill="#008933" stroke="#008933"></path><path d="M671 536.1L615 465.7L596 481.1Z" fill="#00454d" stroke="#00454d"></path><path d="M198 328.6L251 398.7L262 370Z" fill="#00625b" stroke="#00625b"></path><path d="M262 370L251 398.7L289 372.4Z" fill="#00111c" stroke="#00111c"></path><path d="M667 85.6L647 87.9L657 140.9Z" fill="#051e29" stroke="#051e29"></path><path d="M594 35.6L518 30.9L505 94.7Z" fill="#005356" stroke="#005356"></path><path d="M691 96.4L687 183.6L694 187.3Z" fill="#007057" stroke="#007057"></path><path d="M239 471.1L301 482.1L299 444.7Z" fill="#005356" stroke="#005356"></path><path d="M299 444.7L301 482.1L356 484.4Z" fill="#007057" stroke="#007057"></path><path d="M389 512.1L397 565.3L402 495.4Z" fill="#007d4a" stroke="#007d4a"></path><path d="M249 218.6L226 292.7L279 286.3Z" fill="#051e29" stroke="#051e29"></path><path d="M429 47.7L396 49.6L426 54.7Z" fill="#003742" stroke="#003742"></path><path d="M594 35.6L563 145.7L626 89.9Z" fill="#007057" stroke="#007057"></path><path d="M429 47.7L414 0L396 49.6Z" fill="#022a36" stroke="#022a36"></path><path d="M761 371.7L694 359L705 387Z" fill="#022a36" stroke="#022a36"></path><path d="M733 301.1L763 286.7L739 269.9Z" fill="#007057" stroke="#007057"></path><path d="M765 319L763 286.7L733 301.1Z" fill="#003742" stroke="#003742"></path><path d="M816 227.4L740 185.6L718 228Z" fill="#008933" stroke="#008933"></path><path d="M718 228L740 185.6L694 187.3Z" fill="#00454d" stroke="#00454d"></path><path d="M476 559.4L559 564.1L518 504.1Z" fill="#008933" stroke="#008933"></path><path d="M804 186.4L740 185.6L816 227.4Z" fill="#051e29" stroke="#051e29"></path><path d="M784 331.7L765 319L762 321.7Z" fill="#051e29" stroke="#051e29"></path><path d="M762 321.7L765 319L733 301.1Z" fill="#005356" stroke="#005356"></path><path d="M396 49.6L367 53.6L368 74.6Z" fill="#00111c" stroke="#00111c"></path><path d="M295 72.4L222 210.6L315 181.3Z" fill="#022a36" stroke="#022a36"></path><path d="M317 45.6L367 53.6L356 6.7Z" fill="#003742" stroke="#003742"></path><path d="M691 96.4L667 85.6L657 140.9Z" fill="#008933" stroke="#008933"></path><path d="M647 87.9L594 35.6L626 89.9Z" fill="#00111c" stroke="#00111c"></path><path d="M762 423.3L761 371.7L705 387Z" fill="#051e29" stroke="#051e29"></path><path d="M222 210.6L212 292L226 292.7Z" fill="#022a36" stroke="#022a36"></path><path d="M226 292.7L198 328.6L262 370Z" fill="#007057" stroke="#007057"></path><path d="M799 409.6L765 366.9L761 371.7Z" fill="#051e29" stroke="#051e29"></path><path d="M761 371.7L765 366.9L762 321.7Z" fill="#169400" stroke="#169400"></path><path d="M334 554.4L389 512.1L356 484.4Z" fill="#169400" stroke="#169400"></path><path d="M476 559.4L525 600L559 564.1Z" fill="#007d4a" stroke="#007d4a"></path><path d="M647 0L594 35.6L647 87.9Z" fill="#008933" stroke="#008933"></path><path d="M740 185.6L691 96.4L694 187.3Z" fill="#00625b" stroke="#00625b"></path><path d="M667 85.6L682 60.7L647 87.9Z" fill="#007057" stroke="#007057"></path><path d="M295 72.4L315 181.3L368 74.6Z" fill="#007d4a" stroke="#007d4a"></path><path d="M249 218.6L222 210.6L226 292.7Z" fill="#00111c" stroke="#00111c"></path><path d="M671 536.1L596 481.1L577 510.6Z" fill="#005356" stroke="#005356"></path><path d="M761 431.4L762 423.3L705 387Z" fill="#00625b" stroke="#00625b"></path><path d="M822 351.6L784 331.7L765 366.9Z" fill="#169400" stroke="#169400"></path><path d="M765 366.9L784 331.7L762 321.7Z" fill="#169400" stroke="#169400"></path><path d="M765 319L790 301.9L763 286.7Z" fill="#003742" stroke="#003742"></path><path d="M816 227.4L718 228L739 269.9Z" fill="#00111c" stroke="#00111c"></path><path d="M189 286.9L198 300.1L212 292Z" fill="#022a36" stroke="#022a36"></path><path d="M212 292L198 328.6L226 292.7Z" fill="#007d4a" stroke="#007d4a"></path><path d="M198 300.1L198 328.6L212 292Z" fill="#008933" stroke="#008933"></path><path d="M239 471.1L287 513.4L301 482.1Z" fill="#00454d" stroke="#00454d"></path><path d="M642 570.1L671 536.1L577 510.6Z" fill="#00454d" stroke="#00454d"></path><path d="M239 471.1L299 444.7L251 398.7Z" fill="#00111c" stroke="#00111c"></path><path d="M301 482.1L287 513.4L356 484.4Z" fill="#00454d" stroke="#00454d"></path><path d="M761 431.4L705 387L697 453.4Z" fill="#022a36" stroke="#022a36"></path><path d="M784 331.7L790 301.9L765 319Z" fill="#007d4a" stroke="#007d4a"></path><path d="M715 483.4L761 431.4L697 453.4Z" fill="#007d4a" stroke="#007d4a"></path><path d="M762 423.3L799 409.6L761 371.7Z" fill="#00454d" stroke="#00454d"></path><path d="M799 409.6L761 431.4L795 511.6Z" fill="#00625b" stroke="#00625b"></path><path d="M287 513.4L334 554.4L356 484.4Z" fill="#00625b" stroke="#00625b"></path><path d="M477 600L476 559.4L412 606.3Z" fill="#00111c" stroke="#00111c"></path><path d="M477 600L485 600L476 559.4Z" fill="#008933" stroke="#008933"></path><path d="M609 592.3L642 570.1L577 510.6Z" fill="#003742" stroke="#003742"></path><path d="M538 0L510 0L518 30.9Z" fill="#00625b" stroke="#00625b"></path><path d="M518 30.9L510 0L474 60.7Z" fill="#008933" stroke="#008933"></path><path d="M485 600L505 600L476 559.4Z" fill="#003742" stroke="#003742"></path><path d="M407 600L476 559.4L397 565.3Z" fill="#005356" stroke="#005356"></path><path d="M317 45.6L368 74.6L367 53.6Z" fill="#008933" stroke="#008933"></path><path d="M317 45.6L295 72.4L368 74.6Z" fill="#022a36" stroke="#022a36"></path><path d="M505 600L525 600L476 559.4Z" fill="#008933" stroke="#008933"></path><path d="M586 -5.3L538 0L594 35.6Z" fill="#003742" stroke="#003742"></path><path d="M594 35.6L538 0L518 30.9Z" fill="#169400" stroke="#169400"></path><path d="M180 232.1L189 286.9L212 292Z" fill="#007057" stroke="#007057"></path><path d="M198 300.1L189 286.9L198 328.6Z" fill="#005356" stroke="#005356"></path><path d="M719 88.7L682 60.7L691 96.4Z" fill="#00454d" stroke="#00454d"></path><path d="M691 96.4L682 60.7L667 85.6Z" fill="#022a36" stroke="#022a36"></path><path d="M208 444.6L239 471.1L251 398.7Z" fill="#00454d" stroke="#00454d"></path><path d="M390 0L367 53.6L396 49.6Z" fill="#003742" stroke="#003742"></path><path d="M609 592.3L577 510.6L559 564.1Z" fill="#00454d" stroke="#00454d"></path><path d="M758 488.6L761 431.4L715 483.4Z" fill="#00625b" stroke="#00625b"></path><path d="M740 185.6L719 88.7L691 96.4Z" fill="#00625b" stroke="#00625b"></path><path d="M769 124.6L719 88.7L740 185.6Z" fill="#051e29" stroke="#051e29"></path><path d="M510 0L414 0L429 47.7Z" fill="#008933" stroke="#008933"></path><path d="M525 600L577 600L559 564.1Z" fill="#008933" stroke="#008933"></path><path d="M379 598.3L395 596.1L397 565.3Z" fill="#007057" stroke="#007057"></path><path d="M395 596.1L407 600L397 565.3Z" fill="#00454d" stroke="#00454d"></path><path d="M287 513.4L270 521.3L334 554.4Z" fill="#022a36" stroke="#022a36"></path><path d="M334 554.4L344 580.1L397 565.3Z" fill="#008933" stroke="#008933"></path><path d="M239 471.1L270 521.3L287 513.4Z" fill="#051e29" stroke="#051e29"></path><path d="M577 600L609 592.3L559 564.1Z" fill="#00625b" stroke="#00625b"></path><path d="M414 0L391 0L396 49.6Z" fill="#00625b" stroke="#00625b"></path><path d="M391 0L390 0L396 49.6Z" fill="#003742" stroke="#003742"></path><path d="M395 596.1L412 606.3L407 600Z" fill="#00454d" stroke="#00454d"></path><path d="M407 600L412 606.3L476 559.4Z" fill="#003742" stroke="#003742"></path><path d="M477 600L412 606.3L485 600Z" fill="#00625b" stroke="#00625b"></path><path d="M485 600L686 636.1L505 600Z" fill="#003742" stroke="#003742"></path><path d="M505 600L686 636.1L525 600Z" fill="#005356" stroke="#005356"></path><path d="M525 600L686 636.1L577 600Z" fill="#00625b" stroke="#00625b"></path><path d="M293 600L344 580.1L334 554.4Z" fill="#005356" stroke="#005356"></path><path d="M395 596.1L379 598.3L412 606.3Z" fill="#00111c" stroke="#00111c"></path><path d="M647 0L597 0L594 35.6Z" fill="#005356" stroke="#005356"></path><path d="M159 367.9L208 444.6L251 398.7Z" fill="#00111c" stroke="#00111c"></path><path d="M239 471.1L252 545.4L270 521.3Z" fill="#169400" stroke="#169400"></path><path d="M159 367.9L251 398.7L198 328.6Z" fill="#169400" stroke="#169400"></path><path d="M597 0L586 -5.3L594 35.6Z" fill="#00454d" stroke="#00454d"></path><path d="M538 0L389 -45.1L510 0Z" fill="#007d4a" stroke="#007d4a"></path><path d="M510 0L409 -16.1L414 0Z" fill="#008933" stroke="#008933"></path><path d="M414 0L409 -16.1L391 0Z" fill="#051e29" stroke="#051e29"></path><path d="M391 0L409 -16.1L390 0Z" fill="#00625b" stroke="#00625b"></path><path d="M344 580.1L379 598.3L397 565.3Z" fill="#169400" stroke="#169400"></path><path d="M222 210.6L180 232.1L212 292Z" fill="#00111c" stroke="#00111c"></path><path d="M122 282.1L159 367.9L198 328.6Z" fill="#003742" stroke="#003742"></path><path d="M185 197.3L180 232.1L222 210.6Z" fill="#00111c" stroke="#00111c"></path><path d="M317 45.6L296 45.9L295 72.4Z" fill="#00111c" stroke="#00111c"></path><path d="M177 104.9L185 197.3L222 210.6Z" fill="#00454d" stroke="#00454d"></path><path d="M337 0L296 45.9L317 45.6Z" fill="#008933" stroke="#008933"></path><path d="M390 0L356 6.7L367 53.6Z" fill="#022a36" stroke="#022a36"></path><path d="M177 104.9L222 210.6L295 72.4Z" fill="#008933" stroke="#008933"></path><path d="M758 488.6L715 483.4L718 544.3Z" fill="#00454d" stroke="#00454d"></path><path d="M761 431.4L799 409.6L762 423.3Z" fill="#003742" stroke="#003742"></path><path d="M784 331.7L822 351.6L790 301.9Z" fill="#005356" stroke="#005356"></path><path d="M718 544.3L715 483.4L671 536.1Z" fill="#005356" stroke="#005356"></path><path d="M389 -45.1L409 -16.1L510 0Z" fill="#007d4a" stroke="#007d4a"></path><path d="M389 -45.1L337 0L356 6.7Z" fill="#00454d" stroke="#00454d"></path><path d="M796 157.1L769 124.6L740 185.6Z" fill="#003742" stroke="#003742"></path><path d="M719 88.7L720 33.7L682 60.7Z" fill="#00625b" stroke="#00625b"></path><path d="M769 124.6L747 89.4L719 88.7Z" fill="#005356" stroke="#005356"></path><path d="M682 60.7L647 0L647 87.9Z" fill="#169400" stroke="#169400"></path><path d="M816 227.4L739 269.9L763 286.7Z" fill="#022a36" stroke="#022a36"></path><path d="M816 227.4L763 286.7L790 301.9Z" fill="#051e29" stroke="#051e29"></path><path d="M851 307.3L816 227.4L790 301.9Z" fill="#022a36" stroke="#022a36"></path><path d="M749 551.4L718 544.3L744 600Z" fill="#022a36" stroke="#022a36"></path><path d="M642 570.1L718 544.3L671 536.1Z" fill="#00454d" stroke="#00454d"></path><path d="M799 409.6L822 351.6L765 366.9Z" fill="#00111c" stroke="#00111c"></path><path d="M819 122.9L796 157.1L851 179.3Z" fill="#007057" stroke="#007057"></path><path d="M804 186.4L796 157.1L740 185.6Z" fill="#00111c" stroke="#00111c"></path><path d="M772 47.7L750 37.7L747 89.4Z" fill="#022a36" stroke="#022a36"></path><path d="M666 0L647 0L682 60.7Z" fill="#00625b" stroke="#00625b"></path><path d="M597 0L647 0L586 -5.3Z" fill="#007057" stroke="#007057"></path><path d="M356 6.7L337 0L317 45.6Z" fill="#00454d" stroke="#00454d"></path><path d="M389 -45.1L356 6.7L390 0Z" fill="#051e29" stroke="#051e29"></path><path d="M154 235.3L189 286.9L180 232.1Z" fill="#022a36" stroke="#022a36"></path><path d="M122 282.1L198 328.6L189 286.9Z" fill="#00625b" stroke="#00625b"></path><path d="M270 521.3L252 545.4L334 554.4Z" fill="#005356" stroke="#005356"></path><path d="M344 580.1L293 600L379 598.3Z" fill="#005356" stroke="#005356"></path><path d="M194 475.4L252 545.4L239 471.1Z" fill="#007057" stroke="#007057"></path><path d="M194 475.4L239 471.1L208 444.6Z" fill="#005356" stroke="#005356"></path><path d="M112 242.4L154 235.3L87 195.1Z" fill="#008933" stroke="#008933"></path><path d="M185 197.3L154 235.3L180 232.1Z" fill="#00454d" stroke="#00454d"></path><path d="M173 457.4L194 475.4L208 444.6Z" fill="#00111c" stroke="#00111c"></path><path d="M720 33.7L666 0L682 60.7Z" fill="#00625b" stroke="#00625b"></path><path d="M647 0L666 0L586 -5.3Z" fill="#00111c" stroke="#00111c"></path><path d="M758 488.6L795 511.6L761 431.4Z" fill="#003742" stroke="#003742"></path><path d="M799 409.6L840 357.9L822 351.6Z" fill="#022a36" stroke="#022a36"></path><path d="M718 544.3L771 507.3L758 488.6Z" fill="#00111c" stroke="#00111c"></path><path d="M750 37.7L719 88.7L747 89.4Z" fill="#003742" stroke="#003742"></path><path d="M750 37.7L720 33.7L719 88.7Z" fill="#00111c" stroke="#00111c"></path><path d="M159 367.9L168 437.6L208 444.6Z" fill="#00111c" stroke="#00111c"></path><path d="M900 390.7L840 357.9L900 406.9Z" fill="#007057" stroke="#007057"></path><path d="M822 351.6L851 307.3L790 301.9Z" fill="#00111c" stroke="#00111c"></path><path d="M168 437.6L173 457.4L208 444.6Z" fill="#005356" stroke="#005356"></path><path d="M194 475.4L180 549.1L252 545.4Z" fill="#008933" stroke="#008933"></path><path d="M859 341.7L851 307.3L822 351.6Z" fill="#008933" stroke="#008933"></path><path d="M851 179.3L796 157.1L804 186.4Z" fill="#051e29" stroke="#051e29"></path><path d="M686 636.1L718 544.3L642 570.1Z" fill="#007d4a" stroke="#007d4a"></path><path d="M718 544.3L749 551.4L771 507.3Z" fill="#005356" stroke="#005356"></path><path d="M586 -5.3L389 -45.1L538 0Z" fill="#008933" stroke="#008933"></path><path d="M409 -16.1L389 -45.1L390 0Z" fill="#00454d" stroke="#00454d"></path><path d="M878 -48.1L389 -45.1L586 -5.3Z" fill="#007057" stroke="#007057"></path><path d="M280 600L293 600L252 545.4Z" fill="#00111c" stroke="#00111c"></path><path d="M252 545.4L293 600L334 554.4Z" fill="#007d4a" stroke="#007d4a"></path><path d="M379 598.3L293 600L412 606.3Z" fill="#007d4a" stroke="#007d4a"></path><path d="M139 449.7L171 464.6L173 457.4Z" fill="#169400" stroke="#169400"></path><path d="M173 457.4L171 464.6L194 475.4Z" fill="#022a36" stroke="#022a36"></path><path d="M139 449.7L173 457.4L168 437.6Z" fill="#005356" stroke="#005356"></path><path d="M720 33.7L724 0L666 0Z" fill="#003742" stroke="#003742"></path><path d="M772 47.7L747 89.4L769 124.6Z" fill="#003742" stroke="#003742"></path><path d="M277 600.3L280 600L252 545.4Z" fill="#008933" stroke="#008933"></path><path d="M293 600L186 613.1L412 606.3Z" fill="#008933" stroke="#008933"></path><path d="M900 330L859 341.7L900 390.7Z" fill="#003742" stroke="#003742"></path><path d="M840 357.9L859 341.7L822 351.6Z" fill="#007057" stroke="#007057"></path><path d="M795 511.6L758 488.6L771 507.3Z" fill="#005356" stroke="#005356"></path><path d="M784 566.3L795 511.6L771 507.3Z" fill="#007d4a" stroke="#007d4a"></path><path d="M207 600L277 600.3L252 545.4Z" fill="#007d4a" stroke="#007d4a"></path><path d="M280 600L277 600.3L293 600Z" fill="#00454d" stroke="#00454d"></path><path d="M202 63.7L295 72.4L296 45.9Z" fill="#008933" stroke="#008933"></path><path d="M191 77.7L177 104.9L295 72.4Z" fill="#00625b" stroke="#00625b"></path><path d="M202 63.7L197 0L183 56.6Z" fill="#005356" stroke="#005356"></path><path d="M112 242.4L122 282.1L154 235.3Z" fill="#003742" stroke="#003742"></path><path d="M154 235.3L122 282.1L189 286.9Z" fill="#00454d" stroke="#00454d"></path><path d="M159 367.9L139 449.7L168 437.6Z" fill="#169400" stroke="#169400"></path><path d="M851 179.3L804 186.4L816 227.4Z" fill="#022a36" stroke="#022a36"></path><path d="M796 157.1L819 122.9L769 124.6Z" fill="#003742" stroke="#003742"></path><path d="M851 179.3L816 227.4L900 241.3Z" fill="#051e29" stroke="#051e29"></path><path d="M202 63.7L296 45.9L235 0Z" fill="#022a36" stroke="#022a36"></path><path d="M202 63.7L191 77.7L295 72.4Z" fill="#00454d" stroke="#00454d"></path><path d="M819 122.9L772 47.7L769 124.6Z" fill="#003742" stroke="#003742"></path><path d="M900 248L816 227.4L851 307.3Z" fill="#003742" stroke="#003742"></path><path d="M746 0L720 33.7L750 37.7Z" fill="#022a36" stroke="#022a36"></path><path d="M746 0L724 0L720 33.7Z" fill="#005356" stroke="#005356"></path><path d="M666 0L878 -48.1L586 -5.3Z" fill="#005356" stroke="#005356"></path><path d="M202 63.7L184 73.4L191 77.7Z" fill="#051e29" stroke="#051e29"></path><path d="M191 77.7L184 73.4L177 104.9Z" fill="#00625b" stroke="#00625b"></path><path d="M87 195.1L154 235.3L185 197.3Z" fill="#022a36" stroke="#022a36"></path><path d="M183 56.6L184 73.4L202 63.7Z" fill="#00625b" stroke="#00625b"></path><path d="M76 443.6L139 449.7L159 367.9Z" fill="#051e29" stroke="#051e29"></path><path d="M171 464.6L151 483.3L194 475.4Z" fill="#051e29" stroke="#051e29"></path><path d="M125 130.3L185 197.3L177 104.9Z" fill="#007d4a" stroke="#007d4a"></path><path d="M122 282.1L94 337.7L159 367.9Z" fill="#007057" stroke="#007057"></path><path d="M139 449.7L151 483.3L171 464.6Z" fill="#00111c" stroke="#00111c"></path><path d="M609 592.3L686 636.1L642 570.1Z" fill="#007d4a" stroke="#007d4a"></path><path d="M749 551.4L784 566.3L771 507.3Z" fill="#022a36" stroke="#022a36"></path><path d="M577 600L686 636.1L609 592.3Z" fill="#007057" stroke="#007057"></path><path d="M412 606.3L686 636.1L485 600Z" fill="#00454d" stroke="#00454d"></path><path d="M186 613.1L686 636.1L412 606.3Z" fill="#007d4a" stroke="#007d4a"></path><path d="M686 636.1L744 600L718 544.3Z" fill="#022a36" stroke="#022a36"></path><path d="M756 0L750 37.7L772 47.7Z" fill="#051e29" stroke="#051e29"></path><path d="M756 0L746 0L750 37.7Z" fill="#00454d" stroke="#00454d"></path><path d="M724 0L878 -48.1L666 0Z" fill="#007d4a" stroke="#007d4a"></path><path d="M235 0L296 45.9L236 -12.1Z" fill="#169400" stroke="#169400"></path><path d="M141 98.4L125 130.3L177 104.9Z" fill="#169400" stroke="#169400"></path><path d="M686 636.1L748 600L744 600Z" fill="#022a36" stroke="#022a36"></path><path d="M744 600L748 600L749 551.4Z" fill="#007057" stroke="#007057"></path><path d="M748 600L784 566.3L749 551.4Z" fill="#005356" stroke="#005356"></path><path d="M900 330L851 307.3L859 341.7Z" fill="#003742" stroke="#003742"></path><path d="M236 -12.1L296 45.9L337 0Z" fill="#007057" stroke="#007057"></path><path d="M838 3.9L756 0L772 47.7Z" fill="#169400" stroke="#169400"></path><path d="M746 0L878 -48.1L724 0Z" fill="#00625b" stroke="#00625b"></path><path d="M855 95.9L772 47.7L819 122.9Z" fill="#008933" stroke="#008933"></path><path d="M151 483.3L180 549.1L194 475.4Z" fill="#00625b" stroke="#00625b"></path><path d="M93 335.9L94 337.7L122 282.1Z" fill="#007057" stroke="#007057"></path><path d="M83 466.4L135 511.1L151 483.3Z" fill="#00454d" stroke="#00454d"></path><path d="M90 268.9L93 335.9L122 282.1Z" fill="#051e29" stroke="#051e29"></path><path d="M83 466.4L151 483.3L139 449.7Z" fill="#051e29" stroke="#051e29"></path><path d="M72 233.3L90 268.9L112 242.4Z" fill="#169400" stroke="#169400"></path><path d="M112 242.4L90 268.9L122 282.1Z" fill="#00625b" stroke="#00625b"></path><path d="M389 -45.1L236 -12.1L337 0Z" fill="#022a36" stroke="#022a36"></path><path d="M235 0L197 0L202 63.7Z" fill="#022a36" stroke="#022a36"></path><path d="M141 98.4L184 73.4L126 52.7Z" fill="#169400" stroke="#169400"></path><path d="M141 98.4L177 104.9L184 73.4Z" fill="#022a36" stroke="#022a36"></path><path d="M126 52.7L184 73.4L183 56.6Z" fill="#007d4a" stroke="#007d4a"></path><path d="M859 341.7L840 357.9L900 390.7Z" fill="#007d4a" stroke="#007d4a"></path><path d="M900 330L900 306.1L851 307.3Z" fill="#00454d" stroke="#00454d"></path><path d="M840 357.9L799 409.6L900 406.9Z" fill="#00625b" stroke="#00625b"></path><path d="M900 306.1L900 248L851 307.3Z" fill="#007d4a" stroke="#007d4a"></path><path d="M900 135.9L855 95.9L819 122.9Z" fill="#00454d" stroke="#00454d"></path><path d="M900 248L900 241.3L816 227.4Z" fill="#008933" stroke="#008933"></path><path d="M180 549.1L207 600L252 545.4Z" fill="#008933" stroke="#008933"></path><path d="M277 600.3L186 613.1L293 600Z" fill="#022a36" stroke="#022a36"></path><path d="M151 483.3L135 511.1L180 549.1Z" fill="#00625b" stroke="#00625b"></path><path d="M180 549.1L186 613.1L207 600Z" fill="#008933" stroke="#008933"></path><path d="M76 443.6L159 367.9L94 337.7Z" fill="#003742" stroke="#003742"></path><path d="M900 135.9L819 122.9L851 179.3Z" fill="#007d4a" stroke="#007d4a"></path><path d="M900 406.9L799 409.6L900 446.6Z" fill="#003742" stroke="#003742"></path><path d="M125 130.3L87 195.1L185 197.3Z" fill="#008933" stroke="#008933"></path><path d="M56 210.4L87 195.1L25 114.7Z" fill="#003742" stroke="#003742"></path><path d="M815 600L818 565.1L784 566.3Z" fill="#007057" stroke="#007057"></path><path d="M784 566.3L818 565.1L795 511.6Z" fill="#00454d" stroke="#00454d"></path><path d="M815 600L784 566.3L748 600Z" fill="#007d4a" stroke="#007d4a"></path><path d="M236 -12.1L197 0L235 0Z" fill="#00625b" stroke="#00625b"></path><path d="M900 446.6L799 409.6L795 511.6Z" fill="#00454d" stroke="#00454d"></path><path d="M87 195.1L72 233.3L112 242.4Z" fill="#007057" stroke="#007057"></path><path d="M90 268.9L55 317L93 335.9Z" fill="#169400" stroke="#169400"></path><path d="M900 494.3L900 446.6L795 511.6Z" fill="#008933" stroke="#008933"></path><path d="M900 446.6L909 424.3L900 406.9Z" fill="#003742" stroke="#003742"></path><path d="M900 406.9L918 397L900 390.7Z" fill="#00454d" stroke="#00454d"></path><path d="M900 390.7L945 359.9L900 330Z" fill="#00454d" stroke="#00454d"></path><path d="M900 330L945 359.9L900 306.1Z" fill="#00111c" stroke="#00111c"></path><path d="M900 306.1L945 359.9L900 248Z" fill="#00454d" stroke="#00454d"></path><path d="M900 248L945 359.9L900 241.3Z" fill="#008933" stroke="#008933"></path><path d="M909 424.3L918 397L900 406.9Z" fill="#003742" stroke="#003742"></path><path d="M33 299.1L55 317L90 268.9Z" fill="#003742" stroke="#003742"></path><path d="M93 335.9L29 335.6L94 337.7Z" fill="#051e29" stroke="#051e29"></path><path d="M137 600L186 613.1L180 549.1Z" fill="#00454d" stroke="#00454d"></path><path d="M207 600L186 613.1L277 600.3Z" fill="#00625b" stroke="#00625b"></path><path d="M900 241.3L900 135.9L851 179.3Z" fill="#007057" stroke="#007057"></path><path d="M855 95.9L838 3.9L772 47.7Z" fill="#022a36" stroke="#022a36"></path><path d="M930 136.7L900 135.9L900 241.3Z" fill="#005356" stroke="#005356"></path><path d="M39 433.4L76 443.6L94 337.7Z" fill="#051e29" stroke="#051e29"></path><path d="M135 511.1L103 537.1L180 549.1Z" fill="#169400" stroke="#169400"></path><path d="M850 637.1L815 600L748 600Z" fill="#169400" stroke="#169400"></path><path d="M900 501.4L900 494.3L795 511.6Z" fill="#007d4a" stroke="#007d4a"></path><path d="M141 20.9L126 52.7L183 56.6Z" fill="#005356" stroke="#005356"></path><path d="M141 98.4L101 86.7L125 130.3Z" fill="#005356" stroke="#005356"></path><path d="M87 195.1L56 210.4L72 233.3Z" fill="#00454d" stroke="#00454d"></path><path d="M76 443.6L83 466.4L139 449.7Z" fill="#169400" stroke="#169400"></path><path d="M55 99.6L87 195.1L125 130.3Z" fill="#00625b" stroke="#00625b"></path><path d="M30 256.4L33 299.1L90 268.9Z" fill="#005356" stroke="#005356"></path><path d="M126 52.7L101 86.7L141 98.4Z" fill="#005356" stroke="#005356"></path><path d="M197 0L141 20.9L183 56.6Z" fill="#003742" stroke="#003742"></path><path d="M66 40.9L55 99.6L101 86.7Z" fill="#022a36" stroke="#022a36"></path><path d="M900 446.6L900 494.3L909 424.3Z" fill="#169400" stroke="#169400"></path><path d="M909 424.3L945 359.9L918 397Z" fill="#008933" stroke="#008933"></path><path d="M900 501.4L795 511.6L818 565.1Z" fill="#005356" stroke="#005356"></path><path d="M888 600L900 501.4L818 565.1Z" fill="#00454d" stroke="#00454d"></path><path d="M900 494.3L945 359.9L909 424.3Z" fill="#00111c" stroke="#00111c"></path><path d="M900 41.6L838 3.9L855 95.9Z" fill="#007d4a" stroke="#007d4a"></path><path d="M756 0L878 -48.1L746 0Z" fill="#00454d" stroke="#00454d"></path><path d="M930 136.7L900 96.7L900 135.9Z" fill="#005356" stroke="#005356"></path><path d="M900 135.9L900 96.7L855 95.9Z" fill="#00454d" stroke="#00454d"></path><path d="M65 487.3L135 511.1L83 466.4Z" fill="#005356" stroke="#005356"></path><path d="M68 518.3L103 537.1L135 511.1Z" fill="#005356" stroke="#005356"></path><path d="M900 501.4L945 359.9L900 494.3Z" fill="#051e29" stroke="#051e29"></path><path d="M918 397L945 359.9L900 390.7Z" fill="#007057" stroke="#007057"></path><path d="M30 256.4L90 268.9L72 233.3Z" fill="#169400" stroke="#169400"></path><path d="M55 317L29 335.6L93 335.9Z" fill="#00111c" stroke="#00111c"></path><path d="M58 478.7L65 487.3L83 466.4Z" fill="#00625b" stroke="#00625b"></path><path d="M949 59.6L900 79.4L900 96.7Z" fill="#00454d" stroke="#00454d"></path><path d="M900 96.7L900 79.4L855 95.9Z" fill="#051e29" stroke="#051e29"></path><path d="M0 267.4L30 256.4L0 216.6Z" fill="#00625b" stroke="#00625b"></path><path d="M56 210.4L30 256.4L72 233.3Z" fill="#007057" stroke="#007057"></path><path d="M0 306.7L29 335.6L33 299.1Z" fill="#008933" stroke="#008933"></path><path d="M33 299.1L29 335.6L55 317Z" fill="#022a36" stroke="#022a36"></path><path d="M103 537.1L137 600L180 549.1Z" fill="#00454d" stroke="#00454d"></path><path d="M58 478.7L83 466.4L76 443.6Z" fill="#007057" stroke="#007057"></path><path d="M103 537.1L112 600L137 600Z" fill="#051e29" stroke="#051e29"></path><path d="M945 359.9L930 136.7L900 241.3Z" fill="#00625b" stroke="#00625b"></path><path d="M39 433.4L58 478.7L76 443.6Z" fill="#007d4a" stroke="#007d4a"></path><path d="M65 487.3L68 518.3L135 511.1Z" fill="#003742" stroke="#003742"></path><path d="M29 335.6L39 433.4L94 337.7Z" fill="#003742" stroke="#003742"></path><path d="M147 -45.1L141 20.9L197 0Z" fill="#00625b" stroke="#00625b"></path><path d="M147 -45.1L123 0L141 20.9Z" fill="#00454d" stroke="#00454d"></path><path d="M141 20.9L123 0L126 52.7Z" fill="#003742" stroke="#003742"></path><path d="M101 86.7L55 99.6L125 130.3Z" fill="#169400" stroke="#169400"></path><path d="M147 -45.1L197 0L236 -12.1Z" fill="#00454d" stroke="#00454d"></path><path d="M70 548.1L68 518.3L36 554.3Z" fill="#005356" stroke="#005356"></path><path d="M58 478.7L68 518.3L65 487.3Z" fill="#169400" stroke="#169400"></path><path d="M66 40.9L101 86.7L126 52.7Z" fill="#008933" stroke="#008933"></path><path d="M949 59.6L900 41.6L900 79.4Z" fill="#051e29" stroke="#051e29"></path><path d="M900 79.4L900 41.6L855 95.9Z" fill="#003742" stroke="#003742"></path><path d="M99 600L112 600L103 537.1Z" fill="#00111c" stroke="#00111c"></path><path d="M137 600L112 600L186 613.1Z" fill="#051e29" stroke="#051e29"></path><path d="M389 -45.1L147 -45.1L236 -12.1Z" fill="#051e29" stroke="#051e29"></path><path d="M91 0L66 40.9L126 52.7Z" fill="#169400" stroke="#169400"></path><path d="M36 554.3L68 518.3L0 526.4Z" fill="#007057" stroke="#007057"></path><path d="M68 518.3L70 548.1L103 537.1Z" fill="#00454d" stroke="#00454d"></path><path d="M686 636.1L850 637.1L748 600Z" fill="#00454d" stroke="#00454d"></path><path d="M815 600L888 600L818 565.1Z" fill="#00454d" stroke="#00454d"></path><path d="M-6 286.1L0 306.7L33 299.1Z" fill="#00625b" stroke="#00625b"></path><path d="M29 335.6L2 357L39 433.4Z" fill="#008933" stroke="#008933"></path><path d="M39 433.4L0 437.9L58 478.7Z" fill="#00111c" stroke="#00111c"></path><path d="M0 267.4L33 299.1L30 256.4Z" fill="#005356" stroke="#005356"></path><path d="M0 216.6L30 256.4L56 210.4Z" fill="#007057" stroke="#007057"></path><path d="M0 352L2 357L29 335.6Z" fill="#169400" stroke="#169400"></path><path d="M70 548.1L99 600L103 537.1Z" fill="#022a36" stroke="#022a36"></path><path d="M112 600L0 639.1L186 613.1Z" fill="#005356" stroke="#005356"></path><path d="M0 306.7L0 352L29 335.6Z" fill="#051e29" stroke="#051e29"></path><path d="M2 357L0 421.6L39 433.4Z" fill="#003742" stroke="#003742"></path><path d="M850 637.1L888 600L815 600Z" fill="#007d4a" stroke="#007d4a"></path><path d="M900 501.4L900 600L945 359.9Z" fill="#051e29" stroke="#051e29"></path><path d="M0 267.4L-6 286.1L33 299.1Z" fill="#00111c" stroke="#00111c"></path><path d="M0 306.7L-6 286.1L0 352Z" fill="#00111c" stroke="#00111c"></path><path d="M91 0L126 52.7L123 0Z" fill="#00111c" stroke="#00111c"></path><path d="M0 189.1L0 216.6L56 210.4Z" fill="#169400" stroke="#169400"></path><path d="M0 267.4L0 216.6L-6 286.1Z" fill="#005356" stroke="#005356"></path><path d="M25 114.7L87 195.1L55 99.6Z" fill="#008933" stroke="#008933"></path><path d="M147 -45.1L91 0L123 0Z" fill="#005356" stroke="#005356"></path><path d="M0 59.9L25 114.7L55 99.6Z" fill="#051e29" stroke="#051e29"></path><path d="M0 141.3L0 189.1L56 210.4Z" fill="#051e29" stroke="#051e29"></path><path d="M0 216.6L-39 125.7L-6 286.1Z" fill="#008933" stroke="#008933"></path><path d="M954 0L900 0L900 41.6Z" fill="#051e29" stroke="#051e29"></path><path d="M900 41.6L900 0L838 3.9Z" fill="#00454d" stroke="#00454d"></path><path d="M838 3.9L878 -48.1L756 0Z" fill="#00111c" stroke="#00111c"></path><path d="M900 632.1L900 600L888 600Z" fill="#007057" stroke="#007057"></path><path d="M888 600L900 600L900 501.4Z" fill="#007d4a" stroke="#007d4a"></path><path d="M-6 286.1L0 421.6L0 352Z" fill="#051e29" stroke="#051e29"></path><path d="M0 352L0 421.6L2 357Z" fill="#00454d" stroke="#00454d"></path><path d="M53 600L79 600L70 548.1Z" fill="#007d4a" stroke="#007d4a"></path><path d="M70 548.1L79 600L99 600Z" fill="#051e29" stroke="#051e29"></path><path d="M99 600L0 639.1L112 600Z" fill="#007d4a" stroke="#007d4a"></path><path d="M-39 125.7L0 437.9L0 421.6Z" fill="#022a36" stroke="#022a36"></path><path d="M0 421.6L0 437.9L39 433.4Z" fill="#003742" stroke="#003742"></path><path d="M945 359.9L949 59.6L930 136.7Z" fill="#051e29" stroke="#051e29"></path><path d="M930 136.7L949 59.6L900 96.7Z" fill="#008933" stroke="#008933"></path><path d="M-39 125.7L0 141.3L25 114.7Z" fill="#169400" stroke="#169400"></path><path d="M25 114.7L0 141.3L56 210.4Z" fill="#169400" stroke="#169400"></path><path d="M0 189.1L-9 171.3L0 216.6Z" fill="#00454d" stroke="#00454d"></path><path d="M0 59.9L55 99.6L66 40.9Z" fill="#008933" stroke="#008933"></path><path d="M0 141.3L-9 171.3L0 189.1Z" fill="#022a36" stroke="#022a36"></path><path d="M954 0L878 -48.1L900 0Z" fill="#051e29" stroke="#051e29"></path><path d="M900 0L878 -48.1L838 3.9Z" fill="#051e29" stroke="#051e29"></path><path d="M389 -45.1L-3 -48.1L147 -45.1Z" fill="#022a36" stroke="#022a36"></path><path d="M0 526.4L68 518.3L58 478.7Z" fill="#169400" stroke="#169400"></path><path d="M850 637.1L900 632.1L888 600Z" fill="#007d4a" stroke="#007d4a"></path><path d="M900 600L900 632.1L945 359.9Z" fill="#008933" stroke="#008933"></path><path d="M36 554.3L53 600L70 548.1Z" fill="#051e29" stroke="#051e29"></path><path d="M79 600L0 639.1L99 600Z" fill="#022a36" stroke="#022a36"></path><path d="M0 437.9L0 526.4L58 478.7Z" fill="#051e29" stroke="#051e29"></path><path d="M36 554.3L0 590.3L53 600Z" fill="#00625b" stroke="#00625b"></path><path d="M-39 125.7L0 526.4L0 437.9Z" fill="#003742" stroke="#003742"></path><path d="M-39 125.7L0 421.6L-6 286.1Z" fill="#007057" stroke="#007057"></path><path d="M0 6.7L0 59.9L66 40.9Z" fill="#007057" stroke="#007057"></path><path d="M0 141.3L-39 125.7L-9 171.3Z" fill="#007d4a" stroke="#007d4a"></path><path d="M7 0L66 40.9L91 0Z" fill="#169400" stroke="#169400"></path><path d="M945 359.9L954 0L949 59.6Z" fill="#003742" stroke="#003742"></path><path d="M949 59.6L954 0L900 41.6Z" fill="#169400" stroke="#169400"></path><path d="M0 59.9L-39 125.7L25 114.7Z" fill="#00454d" stroke="#00454d"></path><path d="M-9 171.3L-39 125.7L0 216.6Z" fill="#00454d" stroke="#00454d"></path><path d="M-3 -48.1L7 0L91 0Z" fill="#00625b" stroke="#00625b"></path><path d="M0 59.9L-18 0L-39 125.7Z" fill="#00111c" stroke="#00111c"></path><path d="M-39 125.7L0 590.3L0 526.4Z" fill="#00111c" stroke="#00111c"></path><path d="M0 526.4L0 590.3L36 554.3Z" fill="#169400" stroke="#169400"></path><path d="M7 0L0 6.7L66 40.9Z" fill="#00625b" stroke="#00625b"></path><path d="M-3 -48.1L0 0L7 0Z" fill="#00454d" stroke="#00454d"></path><path d="M7 0L0 0L0 6.7Z" fill="#00454d" stroke="#00454d"></path><path d="M0 6.7L-18 0L0 59.9Z" fill="#005356" stroke="#005356"></path><path d="M-39 125.7L0 600L0 590.3Z" fill="#169400" stroke="#169400"></path><path d="M0 590.3L0 600L53 600Z" fill="#051e29" stroke="#051e29"></path><path d="M53 600L0 639.1L79 600Z" fill="#169400" stroke="#169400"></path><path d="M0 0L-18 0L0 6.7Z" fill="#022a36" stroke="#022a36"></path><path d="M-3 -48.1L-18 0L0 0Z" fill="#003742" stroke="#003742"></path><path d="M-39 125.7L0 639.1L0 600Z" fill="#169400" stroke="#169400"></path><path d="M0 600L0 639.1L53 600Z" fill="#00454d" stroke="#00454d"></path><path d="M186 613.1L0 639.1L686 636.1Z" fill="#00625b" stroke="#00625b"></path><path d="M686 636.1L0 639.1L850 637.1Z" fill="#008933" stroke="#008933"></path><path d="M878 -48.1L-3 -48.1L389 -45.1Z" fill="#00454d" stroke="#00454d"></path><path d="M147 -45.1L-3 -48.1L91 0Z" fill="#00454d" stroke="#00454d"></path></g></svg>